%
M48
M72
T01C0.00800
T02C0.01600
T03C0.02362
T04C0.03150
T05C0.03937
T06C0.04331
T07C0.07874
%
T01
X9374Y34221
X18823Y62174
X22760Y92095
X29453Y98001
X57799Y82253
X73941Y95639
X74138Y108355
X75594Y145127
X54650Y158631
X57799Y204300
X73941Y217686
X74138Y230402
X75988Y266977
X55043Y280481
X58193Y326150
X74335Y339536
X74531Y352253
X75791Y388867
X54846Y402371
X57996Y448040
X74138Y461426
X74335Y474143
X109177Y425599
X118232Y421269
X123193Y428080
X137524Y412213
X140280Y423591
X150240Y444733
X154768Y461387
X155280Y476032
X145201Y475402
X140280Y461426
X133587Y459851
X128783Y456583
X113902Y454064
X139492Y392922
X136028Y388709
X123744Y385835
X115476Y385835
X109177Y385442
X133783Y337961
X128980Y334694
X140476Y339536
X145398Y353513
X155476Y354143
X154531Y337332
X150004Y323158
X140476Y301702
X137720Y290324
X139689Y271032
X136224Y266820
X123941Y263946
X115673Y263946
X109374Y263552
X118429Y299379
X123390Y306190
X109374Y303709
X113626Y332056
X151106Y278906
X166461Y311977
X186539Y330875
X186539Y346977
X190043Y349536
X198390Y348867
X202287Y335206
X210161Y333631
X221343Y357332
X221894Y379851
X222248Y387804
X227209Y387804
X217012Y387804
X236500Y375206
X241854Y388198
X253665Y403946
X253665Y451190
X226106Y451583
X221146Y479221
X209965Y455520
X202091Y457095
X198193Y470757
X189846Y471426
X186343Y468867
X176933Y466780
X175476Y474182
X186343Y452765
X166264Y433867
X150909Y400796
X173744Y385048
X175673Y352292
X177130Y344891
X217209Y265914
X222445Y265914
X227406Y265914
X222091Y257961
X220949Y235481
X209768Y211780
X201894Y213355
X197996Y227017
X189650Y227686
X186146Y225127
X176736Y223040
X175280Y230442
X186146Y209024
X166067Y190127
X149925Y204024
X154610Y217332
X155083Y232292
X145004Y231662
X140083Y217686
X133390Y216111
X128587Y212843
X114295Y210048
X122996Y184339
X118035Y177528
X108980Y181859
X115280Y142095
X108980Y141702
X123547Y142095
X135831Y144969
X139295Y149182
X150713Y157056
X140083Y179851
X137327Y168473
X145004Y109615
X140083Y95639
X133390Y94064
X128587Y90796
X114020Y88591
X122996Y62292
X118035Y55481
X108980Y59812
X108980Y19654
X115280Y20048
X123547Y20048
X135831Y22922
X139295Y27135
X150713Y35009
X140083Y57804
X137327Y46426
X150004Y82253
X154138Y93434
X155083Y110245
X173547Y141308
X175280Y108395
X176736Y100993
X186146Y103080
X189650Y105639
X197996Y104969
X201894Y91308
X209768Y89733
X220949Y113434
X221697Y136111
X222051Y144064
X227012Y144064
X236303Y131465
X241657Y144458
X253469Y160206
X253469Y207450
X236697Y253316
X242051Y266308
X253862Y282056
X253862Y329300
X226303Y329694
X173941Y263158
X225909Y207843
X216815Y144064
X225909Y85796
X253469Y85402
X253469Y38158
X241657Y22410
X236303Y9418
X227012Y22017
X222051Y22017
X216815Y22017
X221697Y14064
X186146Y86977
X166067Y68080
X173547Y19261
X75594Y23080
X54650Y36583
X9374Y156269
X18823Y184221
X22760Y214143
X29453Y220048
X9768Y278119
X19217Y306072
X23154Y335993
X29846Y341898
X9571Y400009
X19020Y427961
X22957Y457883
X29650Y463788
T02
X105437Y483473
X160791Y474103
X105634Y361583
X160988Y352213
X105240Y239733
X160594Y230363
X105240Y117686
X160594Y108316
T03
X182602Y122804
X186539Y122804
X190476Y122804
X194413Y122804
X198350Y122804
X202287Y122804
X206224Y122804
X210161Y122804
X214098Y122804
X218035Y122804
X218232Y244891
X214295Y244891
X210358Y244891
X206421Y244891
X202484Y244891
X198547Y244891
X194610Y244891
X190673Y244891
X186736Y244891
X182799Y244891
X182799Y366544
X186736Y366544
X190673Y366544
X194610Y366544
X198547Y366544
X202484Y366544
X206421Y366544
X210358Y366544
X214295Y366544
X218232Y366544
X76500Y366544
X72563Y366544
X68626Y366544
X64689Y366544
X60752Y366544
X56815Y366544
X52878Y366544
X48941Y366544
X45004Y366544
X41067Y366544
X41067Y244891
X45004Y244891
X48941Y244891
X52878Y244891
X56815Y244891
X60752Y244891
X64689Y244891
X68626Y244891
X72563Y244891
X76500Y244891
X76303Y122804
X72366Y122804
X68429Y122804
X64492Y122804
X60555Y122804
X56618Y122804
X52681Y122804
X48744Y122804
X44807Y122804
X40870Y122804
T04
X44807Y111387
X32996Y111387
X61590Y94427
X61590Y86553
X61590Y208601
X61590Y216475
X44807Y233434
X32996Y233434
X61983Y330451
X61983Y338325
X45201Y355284
X33390Y355284
X61786Y452341
X61786Y460215
X45004Y477174
X33193Y477174
T05
X11539Y442568
X11539Y432568
X11539Y422568
X11539Y412568
X11736Y320678
X11736Y310678
X11736Y300678
X11736Y290678
X11343Y198828
X11343Y188828
X11343Y178828
X11343Y168828
X11343Y76780
X11343Y66780
X11343Y56780
X11343Y46780
X106461Y108434
X116461Y108434
X126461Y108434
X136461Y108434
X137602Y135639
X127602Y135639
X117602Y135639
X147602Y135639
X157602Y135639
X167602Y135639
X177602Y135639
X187602Y135639
X197602Y135639
X207602Y135639
X207996Y257489
X197996Y257489
X187996Y257489
X177996Y257489
X167996Y257489
X157996Y257489
X147996Y257489
X137996Y257489
X127996Y257489
X117996Y257489
X116461Y230481
X126461Y230481
X136461Y230481
X106461Y230481
X106854Y352332
X116854Y352332
X126854Y352332
X136854Y352332
X137799Y379379
X147799Y379379
X157799Y379379
X167799Y379379
X177799Y379379
X187799Y379379
X197799Y379379
X207799Y379379
X136657Y474221
X126657Y474221
X116657Y474221
X106657Y474221
X117799Y379379
X127799Y379379
X127602Y13591
X137602Y13591
X147602Y13591
X157602Y13591
X167602Y13591
X177602Y13591
X187602Y13591
X197602Y13591
X207602Y13591
X117602Y13591
T06
X243626Y61780
X243626Y183828
X244020Y305678
X243823Y427568
T07
X13311Y14536
X13311Y109024
X13311Y136583
X13311Y231072
X13705Y258434
X13705Y352922
X13508Y380324
X13508Y474812
X245791Y474812
X245791Y380324
X245988Y352922
X245988Y258434
X245594Y231072
X245594Y136583
X245594Y109024
X245594Y14536
M30
