M48
METRIC,LZ,000.000
;FILE_FORMAT=3:3
;TYPE=PLATED
;Layer: PTH_Through
;EasyEDA v6.4.29, 2022-01-20 17:46:20
;fb4b0ff46d504c98a6534b0bae3310fd,dc92750a051249c6af70c8c7d89aaf1b,10
;Gerber Generator version 0.2
;Holesize 1 = 0.204 mm
T01C0.204
;Holesize 2 = 0.305 mm
T02C0.305
;Holesize 3 = 0.407 mm
T03C0.407
;Holesize 4 = 0.801 mm
T04C0.801
;Holesize 5 = 1.000 mm
T05C1.000
%
G05
G90
T01
X002130Y100890
X055870Y121010
X064130Y113890
X064130Y101890
X061130Y097890
X013630Y101490
X013208Y112522
X030990Y108020
X030988Y116840
X018580Y119720
X020320Y101346
X039140Y120200
X029210Y097282
X026924Y097282
X031130Y097290
X035130Y099090
X005842Y103124
X005530Y115590
X057410Y097790
X044958Y110236
X038030Y101090
X029730Y106290
X027430Y107390
X037860Y112250
X039010Y116480
X036580Y120040
X055372Y096266
X060198Y093726
X035330Y106880
X035330Y116490
X034630Y103990
X053086Y114554
X051054Y114554
X044270Y119730
X047030Y114290
X056150Y097790
X054820Y097790
X034250Y098020
X033630Y116090
X043830Y097090
X044640Y117850
X032410Y115260
X047030Y118380
X047920Y119030
X007230Y117090
X050040Y118860
X018530Y116490
X057130Y113990
T02
X049670Y107960
X049670Y107960
X010922Y107696
X011684Y112014
X011684Y111123
X011938Y107696
X049784Y107950
X049784Y107950
X049784Y107950
X047498Y109982
T03
X040540Y119710
X026480Y122090
T04
X009144Y116065G85X009144Y116059
X009144Y114065G85X009144Y114059
T05
X026790Y119740G85X026790Y119740
X029330Y119740G85X029330Y119740
X031870Y119740G85X031870Y119740
X034410Y119740G85X034410Y119740
X052480Y095650G85X052480Y095650
X049940Y095650G85X049940Y095650
X047400Y095650G85X047400Y095650
X044860Y095650G85X044860Y095650
X042320Y095650G85X042320Y095650
X039780Y095650G85X039780Y095650
X037240Y095650G85X037240Y095650
X034700Y095650G85X034700Y095650
X032160Y095650G85X032160Y095650
X029620Y095650G85X029620Y095650
X002630Y104080G85X002630Y104080
X002630Y106620G85X002630Y106620
X002630Y109160G85X002630Y109160
X002630Y111700G85X002630Y111700
M30
