G04 Layer: TopPasteMaskLayer*
G04 EasyEDA v6.4.29, 2022-01-20 17:46:20*
G04 fb4b0ff46d504c98a6534b0bae3310fd,dc92750a051249c6af70c8c7d89aaf1b,10*
G04 Gerber Generator version 0.2*
G04 Scale: 100 percent, Rotated: No, Reflected: No *
G04 Dimensions in millimeters *
G04 leading zeros omitted , absolute positions ,4 integer and 5 decimal *
%FSLAX45Y45*%
%MOMM*%

%ADD23R,2.1590X3.5560*%
%ADD24R,0.8999X0.9500*%
%ADD25R,0.6500X0.6500*%
%ADD26R,1.0000X1.1001*%
%ADD27R,1.0000X0.8999*%
%ADD28R,1.1999X1.1999*%
%ADD29R,1.4000X1.0500*%
%ADD30R,0.8001X2.0000*%
%ADD31R,1.4000X0.8001*%
%ADD32R,0.8001X1.8001*%
%ADD35R,0.9500X0.8999*%
%ADD36R,0.5999X0.5999*%
%ADD37R,0.8999X1.0000*%
%ADD38R,0.7000X0.2500*%
%ADD39R,1.7000X1.7000*%
%ADD43R,1.3589X1.5000*%

%LPD*%
G36*
X1575206Y11692788D02*
G01*
X1534210Y11692280D01*
X1529181Y11687302D01*
X1529181Y11572290D01*
X1534210Y11567312D01*
X1662175Y11567312D01*
X1667205Y11572290D01*
X1667205Y11687302D01*
X1662175Y11692280D01*
X1620215Y11691823D01*
X1620215Y11647779D01*
X1575206Y11647779D01*
G37*
G36*
X1534210Y11907316D02*
G01*
X1529181Y11902287D01*
X1529181Y11787276D01*
X1534210Y11782298D01*
X1575206Y11782806D01*
X1575206Y11826798D01*
X1620215Y11826798D01*
X1620215Y11782298D01*
X1662175Y11782298D01*
X1667205Y11787276D01*
X1667205Y11902287D01*
X1662175Y11907316D01*
G37*
G36*
X1560220Y11478310D02*
G01*
X1555191Y11473281D01*
X1555191Y11393322D01*
X1560220Y11388293D01*
X1582978Y11388293D01*
X1582978Y11425326D01*
X1615998Y11425326D01*
X1615998Y11388293D01*
X1640179Y11388293D01*
X1645208Y11393322D01*
X1645208Y11473281D01*
X1640179Y11478310D01*
G37*
G36*
X1560220Y11318290D02*
G01*
X1555191Y11313312D01*
X1555191Y11234318D01*
X1560220Y11229289D01*
X1640179Y11229289D01*
X1645208Y11234318D01*
X1645208Y11313312D01*
X1640179Y11318290D01*
X1615998Y11318290D01*
X1615998Y11280292D01*
X1582978Y11280292D01*
X1582978Y11318290D01*
G37*
G36*
X5703392Y11769979D02*
G01*
X5793384Y11769979D01*
X5793384Y11619992D01*
X5703392Y11619992D01*
G37*
G36*
X5576392Y11769979D02*
G01*
X5666384Y11769979D01*
X5666384Y11619992D01*
X5576392Y11619992D01*
G37*
G36*
X5449392Y11769979D02*
G01*
X5539384Y11769979D01*
X5539384Y11619992D01*
X5449392Y11619992D01*
G37*
G36*
X5322392Y11769979D02*
G01*
X5412384Y11769979D01*
X5412384Y11619992D01*
X5322392Y11619992D01*
G37*
G36*
X5195392Y11769979D02*
G01*
X5285384Y11769979D01*
X5285384Y11619992D01*
X5195392Y11619992D01*
G37*
G36*
X5068392Y11769979D02*
G01*
X5158384Y11769979D01*
X5158384Y11619992D01*
X5068392Y11619992D01*
G37*
G36*
X4941392Y11769979D02*
G01*
X5031384Y11769979D01*
X5031384Y11619992D01*
X4941392Y11619992D01*
G37*
G36*
X4814392Y11769979D02*
G01*
X4904384Y11769979D01*
X4904384Y11619992D01*
X4814392Y11619992D01*
G37*
G36*
X4687392Y11769979D02*
G01*
X4777384Y11769979D01*
X4777384Y11619992D01*
X4687392Y11619992D01*
G37*
G36*
X4560392Y11769979D02*
G01*
X4650384Y11769979D01*
X4650384Y11619992D01*
X4560392Y11619992D01*
G37*
G36*
X4433392Y11769979D02*
G01*
X4523384Y11769979D01*
X4523384Y11619992D01*
X4433392Y11619992D01*
G37*
G36*
X4306392Y11769979D02*
G01*
X4396384Y11769979D01*
X4396384Y11619992D01*
X4306392Y11619992D01*
G37*
G36*
X4179392Y11769979D02*
G01*
X4269384Y11769979D01*
X4269384Y11619992D01*
X4179392Y11619992D01*
G37*
G36*
X4052392Y11769979D02*
G01*
X4142384Y11769979D01*
X4142384Y11619992D01*
X4052392Y11619992D01*
G37*
G36*
X3873398Y11321491D02*
G01*
X3873398Y11411483D01*
X4023385Y11411483D01*
X4023385Y11321491D01*
G37*
G36*
X3873398Y11194491D02*
G01*
X3873398Y11284483D01*
X4023385Y11284483D01*
X4023385Y11194491D01*
G37*
G36*
X3873398Y11067491D02*
G01*
X3873398Y11157483D01*
X4023385Y11157483D01*
X4023385Y11067491D01*
G37*
G36*
X3873398Y10940491D02*
G01*
X3873398Y11030483D01*
X4023385Y11030483D01*
X4023385Y10940491D01*
G37*
G36*
X3873398Y10813491D02*
G01*
X3873398Y10903483D01*
X4023385Y10903483D01*
X4023385Y10813491D01*
G37*
G36*
X3873398Y10686491D02*
G01*
X3873398Y10776483D01*
X4023385Y10776483D01*
X4023385Y10686491D01*
G37*
G36*
X3873398Y10559491D02*
G01*
X3873398Y10649483D01*
X4023385Y10649483D01*
X4023385Y10559491D01*
G37*
G36*
X3873398Y10432491D02*
G01*
X3873398Y10522483D01*
X4023385Y10522483D01*
X4023385Y10432491D01*
G37*
G36*
X3873398Y10305491D02*
G01*
X3873398Y10395483D01*
X4023385Y10395483D01*
X4023385Y10305491D01*
G37*
G36*
X3873398Y10178491D02*
G01*
X3873398Y10268483D01*
X4023385Y10268483D01*
X4023385Y10178491D01*
G37*
G36*
X4052392Y9969982D02*
G01*
X4142384Y9969982D01*
X4142384Y9819995D01*
X4052392Y9819995D01*
G37*
G36*
X4179392Y9969982D02*
G01*
X4269384Y9969982D01*
X4269384Y9819995D01*
X4179392Y9819995D01*
G37*
G36*
X4306392Y9969982D02*
G01*
X4396384Y9969982D01*
X4396384Y9819995D01*
X4306392Y9819995D01*
G37*
G36*
X4433392Y9969982D02*
G01*
X4523384Y9969982D01*
X4523384Y9819995D01*
X4433392Y9819995D01*
G37*
G36*
X4560392Y9969982D02*
G01*
X4650384Y9969982D01*
X4650384Y9819995D01*
X4560392Y9819995D01*
G37*
G36*
X4687392Y9969982D02*
G01*
X4777384Y9969982D01*
X4777384Y9819995D01*
X4687392Y9819995D01*
G37*
G36*
X4814392Y9969982D02*
G01*
X4904384Y9969982D01*
X4904384Y9819995D01*
X4814392Y9819995D01*
G37*
G36*
X4941392Y9969982D02*
G01*
X5031384Y9969982D01*
X5031384Y9819995D01*
X4941392Y9819995D01*
G37*
G36*
X5068392Y9969982D02*
G01*
X5158384Y9969982D01*
X5158384Y9819995D01*
X5068392Y9819995D01*
G37*
G36*
X5195392Y9969982D02*
G01*
X5285384Y9969982D01*
X5285384Y9819995D01*
X5195392Y9819995D01*
G37*
G36*
X5322392Y9969982D02*
G01*
X5412384Y9969982D01*
X5412384Y9819995D01*
X5322392Y9819995D01*
G37*
G36*
X5449392Y9969982D02*
G01*
X5539384Y9969982D01*
X5539384Y9819995D01*
X5449392Y9819995D01*
G37*
G36*
X5576392Y9969982D02*
G01*
X5666384Y9969982D01*
X5666384Y9819995D01*
X5576392Y9819995D01*
G37*
G36*
X5703392Y9969982D02*
G01*
X5793384Y9969982D01*
X5793384Y9819995D01*
X5703392Y9819995D01*
G37*
G36*
X4678400Y11094999D02*
G01*
X5278399Y11094999D01*
X5278399Y10495000D01*
X4678400Y10495000D01*
G37*
G36*
X1213434Y9402597D02*
G01*
X1213434Y9529597D01*
X1442034Y9529597D01*
X1442034Y9402597D01*
G37*
G36*
X1213434Y9631197D02*
G01*
X1213434Y9758197D01*
X1442034Y9758197D01*
X1442034Y9631197D01*
G37*
G36*
X1213434Y9859797D02*
G01*
X1213434Y9986797D01*
X1442034Y9986797D01*
X1442034Y9859797D01*
G37*
D23*
G01*
X692734Y9694697D03*
D24*
G01*
X1324584Y11404600D03*
G01*
X1164590Y11404600D03*
D25*
G01*
X1313713Y10503738D03*
G01*
X1223721Y10503738D03*
D24*
G01*
X1387271Y10346207D03*
G01*
X1227277Y10346207D03*
G36*
X598322Y10434497D02*
G01*
X598322Y10586897D01*
X776122Y10586897D01*
X776122Y10434497D01*
G37*
G36*
X776122Y10156901D02*
G01*
X776122Y10004501D01*
X598322Y10004501D01*
X598322Y10156901D01*
G37*
G36*
X911199Y11166602D02*
G01*
X911199Y10986592D01*
X511200Y10986592D01*
X511200Y11166602D01*
G37*
G36*
X911199Y10806607D02*
G01*
X911199Y10626598D01*
X511200Y10626598D01*
X511200Y10806607D01*
G37*
D26*
G01*
X1085240Y10350703D03*
G01*
X1085240Y10520705D03*
G01*
X931240Y10522712D03*
G01*
X931240Y10352709D03*
G36*
X3607600Y11402606D02*
G01*
X3707599Y11402606D01*
X3707599Y11312613D01*
X3607600Y11312613D01*
G37*
G36*
X3607600Y11242586D02*
G01*
X3707599Y11242586D01*
X3707599Y11152593D01*
X3607600Y11152593D01*
G37*
D28*
G01*
X3651986Y10871987D03*
G01*
X3651986Y11081969D03*
D27*
G01*
X3653256Y11530406D03*
G01*
X3653256Y11690426D03*
G01*
X3651478Y9921417D03*
G01*
X3651478Y10081412D03*
D29*
G01*
X1567992Y9841992D03*
G01*
X1567992Y10031984D03*
D28*
G01*
X1567002Y10402976D03*
G01*
X1567002Y10192969D03*
D30*
G01*
X1188008Y11873966D03*
G01*
X888009Y11873966D03*
G01*
X737997Y11873966D03*
D31*
G01*
X1348003Y12183973D03*
G01*
X578002Y12183973D03*
G01*
X578002Y11913971D03*
G01*
X1348003Y11913971D03*
D32*
G01*
X3091611Y11468201D03*
G01*
X2981604Y11468201D03*
G01*
X2871597Y11468201D03*
G01*
X2761615Y11468201D03*
G01*
X2651607Y11468201D03*
G01*
X2541600Y11468201D03*
G01*
X2431618Y11468201D03*
G01*
X2321610Y11468201D03*
G01*
X2211603Y11468201D03*
G01*
X2211603Y10508208D03*
G01*
X2321610Y10508208D03*
G01*
X2431618Y10508208D03*
G01*
X2541600Y10508208D03*
G01*
X2651607Y10508208D03*
G01*
X2761615Y10508208D03*
G01*
X2871597Y10508208D03*
G01*
X2981604Y10508208D03*
G01*
X3091611Y10508208D03*
G36*
X2277605Y9857384D02*
G01*
X2497594Y9857384D01*
X2497594Y9772396D01*
X2277605Y9772396D01*
G37*
G36*
X2277605Y9582404D02*
G01*
X2497594Y9582404D01*
X2497594Y9497415D01*
X2277605Y9497415D01*
G37*
G36*
X2487599Y9727399D02*
G01*
X2592603Y9727399D01*
X2592603Y9627400D01*
X2487599Y9627400D01*
G37*
G36*
X2182596Y9727399D02*
G01*
X2287600Y9727399D01*
X2287600Y9627400D01*
X2182596Y9627400D01*
G37*
D27*
G01*
X3653993Y10218978D03*
G01*
X3653993Y10378973D03*
D28*
G01*
X3653002Y10511967D03*
G01*
X3653002Y10721975D03*
G36*
X2329332Y10151211D02*
G01*
X2329002Y10151237D01*
X2328697Y10151287D01*
X2328367Y10151389D01*
X2328062Y10151516D01*
X2327783Y10151694D01*
X2327529Y10151897D01*
X2327275Y10152126D01*
X2327071Y10152405D01*
X2326919Y10152684D01*
X2326767Y10152989D01*
X2326665Y10153294D01*
X2326614Y10153624D01*
X2326589Y10153954D01*
X2326589Y10224465D01*
X2326614Y10224795D01*
X2326665Y10225125D01*
X2326767Y10225430D01*
X2326919Y10225735D01*
X2327071Y10226014D01*
X2327275Y10226268D01*
X2327529Y10226522D01*
X2327783Y10226725D01*
X2328062Y10226878D01*
X2328367Y10227030D01*
X2328697Y10227132D01*
X2329002Y10227183D01*
X2329332Y10227208D01*
X2345842Y10227208D01*
X2346172Y10227183D01*
X2346502Y10227132D01*
X2346807Y10227030D01*
X2347112Y10226878D01*
X2347417Y10226725D01*
X2347671Y10226522D01*
X2347899Y10226268D01*
X2348103Y10226014D01*
X2348280Y10225735D01*
X2348407Y10225430D01*
X2348509Y10225125D01*
X2348585Y10224795D01*
X2348585Y10224465D01*
X2348585Y10153954D01*
X2348585Y10153624D01*
X2348509Y10153294D01*
X2348407Y10152989D01*
X2348280Y10152684D01*
X2348103Y10152405D01*
X2347899Y10152126D01*
X2347671Y10151897D01*
X2347417Y10151694D01*
X2347112Y10151516D01*
X2346807Y10151389D01*
X2346502Y10151287D01*
X2346172Y10151237D01*
X2345842Y10151211D01*
G37*
G36*
X2379345Y10151211D02*
G01*
X2379014Y10151237D01*
X2378684Y10151287D01*
X2378379Y10151389D01*
X2378075Y10151516D01*
X2377770Y10151694D01*
X2377516Y10151897D01*
X2377287Y10152126D01*
X2377084Y10152405D01*
X2376906Y10152684D01*
X2376779Y10152989D01*
X2376678Y10153294D01*
X2376627Y10153624D01*
X2376601Y10153954D01*
X2376601Y10224465D01*
X2376627Y10224795D01*
X2376678Y10225125D01*
X2376779Y10225430D01*
X2376906Y10225735D01*
X2377084Y10226014D01*
X2377287Y10226268D01*
X2377516Y10226522D01*
X2377770Y10226725D01*
X2378075Y10226878D01*
X2378379Y10227030D01*
X2378684Y10227132D01*
X2379014Y10227183D01*
X2379345Y10227208D01*
X2395855Y10227208D01*
X2396185Y10227183D01*
X2396515Y10227132D01*
X2396820Y10227030D01*
X2397125Y10226878D01*
X2397404Y10226725D01*
X2397658Y10226522D01*
X2397912Y10226268D01*
X2398115Y10226014D01*
X2398268Y10225735D01*
X2398420Y10225430D01*
X2398522Y10225125D01*
X2398572Y10224795D01*
X2398598Y10224465D01*
X2398598Y10153954D01*
X2398572Y10153624D01*
X2398522Y10153294D01*
X2398420Y10152989D01*
X2398268Y10152684D01*
X2398115Y10152405D01*
X2397912Y10152126D01*
X2397658Y10151897D01*
X2397404Y10151694D01*
X2397125Y10151516D01*
X2396820Y10151389D01*
X2396515Y10151287D01*
X2396185Y10151237D01*
X2395855Y10151211D01*
G37*
G36*
X2429332Y10151211D02*
G01*
X2429002Y10151237D01*
X2428697Y10151287D01*
X2428367Y10151389D01*
X2428062Y10151516D01*
X2427782Y10151694D01*
X2427528Y10151897D01*
X2427274Y10152126D01*
X2427071Y10152405D01*
X2426919Y10152684D01*
X2426766Y10152989D01*
X2426665Y10153294D01*
X2426614Y10153624D01*
X2426589Y10153954D01*
X2426589Y10224465D01*
X2426614Y10224795D01*
X2426665Y10225125D01*
X2426766Y10225430D01*
X2426919Y10225735D01*
X2427071Y10226014D01*
X2427274Y10226268D01*
X2427528Y10226522D01*
X2427782Y10226725D01*
X2428062Y10226878D01*
X2428367Y10227030D01*
X2428697Y10227132D01*
X2429002Y10227183D01*
X2429332Y10227208D01*
X2445842Y10227208D01*
X2446172Y10227183D01*
X2446502Y10227132D01*
X2446807Y10227030D01*
X2447112Y10226878D01*
X2447417Y10226725D01*
X2447671Y10226522D01*
X2447899Y10226268D01*
X2448102Y10226014D01*
X2448280Y10225735D01*
X2448407Y10225430D01*
X2448509Y10225125D01*
X2448585Y10224795D01*
X2448585Y10224465D01*
X2448585Y10153954D01*
X2448585Y10153624D01*
X2448509Y10153294D01*
X2448407Y10152989D01*
X2448280Y10152684D01*
X2448102Y10152405D01*
X2447899Y10152126D01*
X2447671Y10151897D01*
X2447417Y10151694D01*
X2447112Y10151516D01*
X2446807Y10151389D01*
X2446502Y10151287D01*
X2446172Y10151237D01*
X2445842Y10151211D01*
G37*
G36*
X2429332Y10245217D02*
G01*
X2429002Y10245217D01*
X2428697Y10245293D01*
X2428367Y10245394D01*
X2428062Y10245521D01*
X2427782Y10245699D01*
X2427528Y10245902D01*
X2427274Y10246131D01*
X2427071Y10246385D01*
X2426919Y10246690D01*
X2426766Y10246969D01*
X2426665Y10247299D01*
X2426614Y10247630D01*
X2426589Y10247960D01*
X2426589Y10318445D01*
X2426614Y10318775D01*
X2426665Y10319105D01*
X2426766Y10319435D01*
X2426919Y10319740D01*
X2427071Y10320020D01*
X2427274Y10320274D01*
X2427528Y10320502D01*
X2427782Y10320731D01*
X2428062Y10320883D01*
X2428367Y10321036D01*
X2428697Y10321137D01*
X2429002Y10321188D01*
X2429332Y10321213D01*
X2445842Y10321213D01*
X2446172Y10321188D01*
X2446502Y10321137D01*
X2446807Y10321036D01*
X2447112Y10320883D01*
X2447417Y10320731D01*
X2447671Y10320502D01*
X2447899Y10320274D01*
X2448102Y10320020D01*
X2448280Y10319740D01*
X2448407Y10319435D01*
X2448509Y10319105D01*
X2448585Y10318775D01*
X2448585Y10318445D01*
X2448585Y10247960D01*
X2448585Y10247630D01*
X2448509Y10247299D01*
X2448407Y10246969D01*
X2448280Y10246690D01*
X2448102Y10246385D01*
X2447899Y10246131D01*
X2447671Y10245902D01*
X2447417Y10245699D01*
X2447112Y10245521D01*
X2446807Y10245394D01*
X2446502Y10245293D01*
X2446172Y10245217D01*
X2445842Y10245217D01*
G37*
G36*
X2379345Y10245217D02*
G01*
X2379014Y10245217D01*
X2378684Y10245293D01*
X2378379Y10245394D01*
X2378075Y10245521D01*
X2377770Y10245699D01*
X2377516Y10245902D01*
X2377287Y10246131D01*
X2377084Y10246385D01*
X2376906Y10246690D01*
X2376779Y10246969D01*
X2376678Y10247299D01*
X2376627Y10247630D01*
X2376601Y10247960D01*
X2376601Y10318445D01*
X2376627Y10318775D01*
X2376678Y10319105D01*
X2376779Y10319435D01*
X2376906Y10319740D01*
X2377084Y10320020D01*
X2377287Y10320274D01*
X2377516Y10320502D01*
X2377770Y10320731D01*
X2378075Y10320883D01*
X2378379Y10321036D01*
X2378684Y10321137D01*
X2379014Y10321188D01*
X2379345Y10321213D01*
X2395855Y10321213D01*
X2396185Y10321188D01*
X2396515Y10321137D01*
X2396820Y10321036D01*
X2397125Y10320883D01*
X2397404Y10320731D01*
X2397658Y10320502D01*
X2397912Y10320274D01*
X2398115Y10320020D01*
X2398268Y10319740D01*
X2398420Y10319435D01*
X2398522Y10319105D01*
X2398572Y10318775D01*
X2398598Y10318445D01*
X2398598Y10247960D01*
X2398572Y10247630D01*
X2398522Y10247299D01*
X2398420Y10246969D01*
X2398268Y10246690D01*
X2398115Y10246385D01*
X2397912Y10246131D01*
X2397658Y10245902D01*
X2397404Y10245699D01*
X2397125Y10245521D01*
X2396820Y10245394D01*
X2396515Y10245293D01*
X2396185Y10245217D01*
X2395855Y10245217D01*
G37*
G36*
X2329332Y10245217D02*
G01*
X2329002Y10245217D01*
X2328697Y10245293D01*
X2328367Y10245394D01*
X2328062Y10245521D01*
X2327783Y10245699D01*
X2327529Y10245902D01*
X2327275Y10246131D01*
X2327071Y10246385D01*
X2326919Y10246690D01*
X2326767Y10246969D01*
X2326665Y10247299D01*
X2326614Y10247630D01*
X2326589Y10247960D01*
X2326589Y10318445D01*
X2326614Y10318775D01*
X2326665Y10319105D01*
X2326767Y10319435D01*
X2326919Y10319740D01*
X2327071Y10320020D01*
X2327275Y10320274D01*
X2327529Y10320502D01*
X2327783Y10320731D01*
X2328062Y10320883D01*
X2328367Y10321036D01*
X2328697Y10321137D01*
X2329002Y10321188D01*
X2329332Y10321213D01*
X2345842Y10321213D01*
X2346172Y10321188D01*
X2346502Y10321137D01*
X2346807Y10321036D01*
X2347112Y10320883D01*
X2347417Y10320731D01*
X2347671Y10320502D01*
X2347899Y10320274D01*
X2348103Y10320020D01*
X2348280Y10319740D01*
X2348407Y10319435D01*
X2348509Y10319105D01*
X2348585Y10318775D01*
X2348585Y10318445D01*
X2348585Y10247960D01*
X2348585Y10247630D01*
X2348509Y10247299D01*
X2348407Y10246969D01*
X2348280Y10246690D01*
X2348103Y10246385D01*
X2347899Y10246131D01*
X2347671Y10245902D01*
X2347417Y10245699D01*
X2347112Y10245521D01*
X2346807Y10245394D01*
X2346502Y10245293D01*
X2346172Y10245217D01*
X2345842Y10245217D01*
G37*
D35*
G01*
X2717800Y10156215D03*
G01*
X2717800Y10316210D03*
G36*
X2517902Y10056406D02*
G01*
X2612898Y10056406D01*
X2612898Y9966413D01*
X2517902Y9966413D01*
G37*
G36*
X2517902Y9896411D02*
G01*
X2612898Y9896411D01*
X2612898Y9806419D01*
X2517902Y9806419D01*
G37*
D36*
G01*
X2565400Y10109200D03*
G01*
X2565400Y10210800D03*
D27*
G01*
X1562989Y10913973D03*
G01*
X1562989Y11073968D03*
G36*
X1512989Y10813986D02*
G01*
X1612988Y10813986D01*
X1612988Y10723994D01*
X1512989Y10723994D01*
G37*
G36*
X1512989Y10653966D02*
G01*
X1612988Y10653966D01*
X1612988Y10563974D01*
X1512989Y10563974D01*
G37*
D37*
G01*
X2993415Y9880600D03*
G01*
X3153410Y9880600D03*
G01*
X2326995Y12160986D03*
G01*
X2167001Y12160986D03*
G36*
X1756003Y12223978D02*
G01*
X1875993Y12223978D01*
X1875993Y12103989D01*
X1756003Y12103989D01*
G37*
G36*
X1966010Y12223978D02*
G01*
X2086000Y12223978D01*
X2086000Y12103989D01*
X1966010Y12103989D01*
G37*
D38*
G01*
X1338808Y10879899D03*
G01*
X1338808Y10924908D03*
G01*
X1338808Y10969891D03*
G01*
X1338808Y11014900D03*
G01*
X1048791Y11014900D03*
G01*
X1048791Y10969891D03*
G01*
X1048791Y10924908D03*
G01*
X1048791Y10879899D03*
D39*
G01*
X1193800Y10947412D03*
G36*
X5554200Y11932201D02*
G01*
X5634200Y11932201D01*
X5634200Y11842198D01*
X5554200Y11842198D01*
G37*
G36*
X5694199Y11932201D02*
G01*
X5774199Y11932201D01*
X5774199Y11842198D01*
X5694199Y11842198D01*
G37*
D43*
G01*
X2311400Y11716410D03*
G01*
X2311400Y11956389D03*
G36*
X922599Y10202545D02*
G01*
X1072601Y10202545D01*
X1072601Y10066655D01*
X922599Y10066655D01*
G37*
G36*
X1162598Y10202545D02*
G01*
X1312598Y10202545D01*
X1312598Y10066655D01*
X1162598Y10066655D01*
G37*
G01*
X1549400Y9721189D03*
G01*
X1549400Y9481210D03*
M02*
