G04 Layer: TopSolderMaskLayer*
G04 EasyEDA v6.4.29, 2022-01-20 17:46:20*
G04 fb4b0ff46d504c98a6534b0bae3310fd,dc92750a051249c6af70c8c7d89aaf1b,10*
G04 Gerber Generator version 0.2*
G04 Scale: 100 percent, Rotated: No, Reflected: No *
G04 Dimensions in millimeters *
G04 leading zeros omitted , absolute positions ,4 integer and 5 decimal *
%FSLAX45Y45*%
%MOMM*%

%ADD66C,1.7112*%
%ADD67C,1.8796*%
%ADD70C,1.6256*%

%LPD*%
G36*
X5693156Y11609832D02*
G01*
X5693156Y11780266D01*
X5803646Y11780266D01*
X5803646Y11609832D01*
G37*
G36*
X5566156Y11609832D02*
G01*
X5566156Y11780266D01*
X5676646Y11780266D01*
X5676646Y11609832D01*
G37*
G36*
X5439156Y11609832D02*
G01*
X5439156Y11780266D01*
X5549646Y11780266D01*
X5549646Y11609832D01*
G37*
G36*
X5312156Y11609832D02*
G01*
X5312156Y11780266D01*
X5422646Y11780266D01*
X5422646Y11609832D01*
G37*
G36*
X5185156Y11609832D02*
G01*
X5185156Y11780266D01*
X5295646Y11780266D01*
X5295646Y11609832D01*
G37*
G36*
X5058156Y11609832D02*
G01*
X5058156Y11780266D01*
X5168646Y11780266D01*
X5168646Y11609832D01*
G37*
G36*
X4931156Y11609832D02*
G01*
X4931156Y11780266D01*
X5041646Y11780266D01*
X5041646Y11609832D01*
G37*
G36*
X4804156Y11609832D02*
G01*
X4804156Y11780266D01*
X4914646Y11780266D01*
X4914646Y11609832D01*
G37*
G36*
X4677156Y11609832D02*
G01*
X4677156Y11780266D01*
X4787646Y11780266D01*
X4787646Y11609832D01*
G37*
G36*
X4550156Y11609832D02*
G01*
X4550156Y11780266D01*
X4660646Y11780266D01*
X4660646Y11609832D01*
G37*
G36*
X4423156Y11609832D02*
G01*
X4423156Y11780266D01*
X4533646Y11780266D01*
X4533646Y11609832D01*
G37*
G36*
X4296156Y11609832D02*
G01*
X4296156Y11780266D01*
X4406646Y11780266D01*
X4406646Y11609832D01*
G37*
G36*
X4169156Y11609832D02*
G01*
X4169156Y11780266D01*
X4279646Y11780266D01*
X4279646Y11609832D01*
G37*
G36*
X4042156Y11609832D02*
G01*
X4042156Y11780266D01*
X4152646Y11780266D01*
X4152646Y11609832D01*
G37*
G36*
X3863340Y11311382D02*
G01*
X3863340Y11421618D01*
X4033520Y11421618D01*
X4033520Y11311382D01*
G37*
G36*
X3863340Y11184382D02*
G01*
X3863340Y11294618D01*
X4033520Y11294618D01*
X4033520Y11184382D01*
G37*
G36*
X3863340Y11057382D02*
G01*
X3863340Y11167618D01*
X4033520Y11167618D01*
X4033520Y11057382D01*
G37*
G36*
X3863340Y10930382D02*
G01*
X3863340Y11040618D01*
X4033520Y11040618D01*
X4033520Y10930382D01*
G37*
G36*
X3863340Y10803382D02*
G01*
X3863340Y10913618D01*
X4033520Y10913618D01*
X4033520Y10803382D01*
G37*
G36*
X3863340Y10676382D02*
G01*
X3863340Y10786618D01*
X4033520Y10786618D01*
X4033520Y10676382D01*
G37*
G36*
X3863340Y10549382D02*
G01*
X3863340Y10659618D01*
X4033520Y10659618D01*
X4033520Y10549382D01*
G37*
G36*
X3863340Y10422382D02*
G01*
X3863340Y10532618D01*
X4033520Y10532618D01*
X4033520Y10422382D01*
G37*
G36*
X3863340Y10295382D02*
G01*
X3863340Y10405618D01*
X4033520Y10405618D01*
X4033520Y10295382D01*
G37*
G36*
X3863340Y10168382D02*
G01*
X3863340Y10278618D01*
X4033520Y10278618D01*
X4033520Y10168382D01*
G37*
G36*
X4042156Y9809734D02*
G01*
X4042156Y9980168D01*
X4152646Y9980168D01*
X4152646Y9809734D01*
G37*
G36*
X4169156Y9809734D02*
G01*
X4169156Y9980168D01*
X4279646Y9980168D01*
X4279646Y9809734D01*
G37*
G36*
X4296156Y9809734D02*
G01*
X4296156Y9980168D01*
X4406646Y9980168D01*
X4406646Y9809734D01*
G37*
G36*
X4423156Y9809734D02*
G01*
X4423156Y9980168D01*
X4533646Y9980168D01*
X4533646Y9809734D01*
G37*
G36*
X4550156Y9809734D02*
G01*
X4550156Y9980168D01*
X4660646Y9980168D01*
X4660646Y9809734D01*
G37*
G36*
X4677156Y9809734D02*
G01*
X4677156Y9980168D01*
X4787646Y9980168D01*
X4787646Y9809734D01*
G37*
G36*
X4804156Y9809734D02*
G01*
X4804156Y9980168D01*
X4914646Y9980168D01*
X4914646Y9809734D01*
G37*
G36*
X4931156Y9809734D02*
G01*
X4931156Y9980168D01*
X5041646Y9980168D01*
X5041646Y9809734D01*
G37*
G36*
X5058156Y9809734D02*
G01*
X5058156Y9980168D01*
X5168646Y9980168D01*
X5168646Y9809734D01*
G37*
G36*
X5185156Y9809734D02*
G01*
X5185156Y9980168D01*
X5295646Y9980168D01*
X5295646Y9809734D01*
G37*
G36*
X5312156Y9809734D02*
G01*
X5312156Y9980168D01*
X5422646Y9980168D01*
X5422646Y9809734D01*
G37*
G36*
X5439156Y9809734D02*
G01*
X5439156Y9980168D01*
X5549646Y9980168D01*
X5549646Y9809734D01*
G37*
G36*
X5566156Y9809734D02*
G01*
X5566156Y9980168D01*
X5676646Y9980168D01*
X5676646Y9809734D01*
G37*
G36*
X5693156Y9809734D02*
G01*
X5693156Y9980168D01*
X5803646Y9980168D01*
X5803646Y9809734D01*
G37*
G36*
X4668266Y10484866D02*
G01*
X4668266Y11105134D01*
X5288534Y11105134D01*
X5288534Y10484866D01*
G37*
G36*
X1203198Y9392412D02*
G01*
X1203198Y9539732D01*
X1452118Y9539732D01*
X1452118Y9392412D01*
G37*
G36*
X1203198Y9621012D02*
G01*
X1203198Y9768332D01*
X1452118Y9768332D01*
X1452118Y9621012D01*
G37*
G36*
X1203198Y9849612D02*
G01*
X1203198Y9996932D01*
X1452118Y9996932D01*
X1452118Y9849612D01*
G37*
G36*
X574548Y9506712D02*
G01*
X574548Y9882632D01*
X810768Y9882632D01*
X810768Y9506712D01*
G37*
G36*
X2593340Y11888470D02*
G01*
X2593340Y12059412D01*
X2764536Y12059412D01*
X2764536Y11888470D01*
G37*
D66*
G01*
X2932988Y11973966D03*
G01*
X3186988Y11973966D03*
G01*
X3440988Y11973966D03*
D67*
G01*
X5247995Y9564979D03*
G01*
X4993995Y9564979D03*
G01*
X4739995Y9564979D03*
G01*
X4485995Y9564979D03*
G01*
X4231995Y9564979D03*
G01*
X3977995Y9564979D03*
G01*
X3723995Y9564979D03*
G01*
X3469995Y9564979D03*
G01*
X3215995Y9564979D03*
G01*
X2961995Y9564979D03*
G36*
X1269492Y11346942D02*
G01*
X1269492Y11462258D01*
X1379728Y11462258D01*
X1379728Y11346942D01*
G37*
G36*
X1109472Y11346942D02*
G01*
X1109472Y11462258D01*
X1219708Y11462258D01*
X1219708Y11346942D01*
G37*
G36*
X1271016Y10460990D02*
G01*
X1271016Y10546334D01*
X1356360Y10546334D01*
X1356360Y10460990D01*
G37*
G36*
X1181100Y10460990D02*
G01*
X1181100Y10546334D01*
X1266444Y10546334D01*
X1266444Y10460990D01*
G37*
G36*
X1332230Y10288524D02*
G01*
X1332230Y10403840D01*
X1442466Y10403840D01*
X1442466Y10288524D01*
G37*
G36*
X1172210Y10288524D02*
G01*
X1172210Y10403840D01*
X1282446Y10403840D01*
X1282446Y10288524D01*
G37*
D70*
G01*
X914400Y11606199D03*
G01*
X914400Y11406200D03*
G36*
X588264Y10424414D02*
G01*
X588264Y10597134D01*
X786384Y10597134D01*
X786384Y10424414D01*
G37*
G36*
X588264Y9994392D02*
G01*
X588264Y10167112D01*
X786384Y10167112D01*
X786384Y9994392D01*
G37*
G36*
X501142Y10976356D02*
G01*
X501142Y11176762D01*
X921258Y11176762D01*
X921258Y10976356D01*
G37*
G36*
X501142Y10616438D02*
G01*
X501142Y10816844D01*
X921258Y10816844D01*
X921258Y10616438D01*
G37*
G36*
X1025144Y10285476D02*
G01*
X1025144Y10415778D01*
X1145286Y10415778D01*
X1145286Y10285476D01*
G37*
G36*
X1025144Y10455656D02*
G01*
X1025144Y10585958D01*
X1145286Y10585958D01*
X1145286Y10455656D01*
G37*
G36*
X870966Y10457434D02*
G01*
X870966Y10587990D01*
X991362Y10587990D01*
X991362Y10457434D01*
G37*
G36*
X870966Y10287508D02*
G01*
X870966Y10417810D01*
X991362Y10417810D01*
X991362Y10287508D01*
G37*
G36*
X3597401Y11302492D02*
G01*
X3597401Y11412728D01*
X3717798Y11412728D01*
X3717798Y11302492D01*
G37*
G36*
X3597401Y11142472D02*
G01*
X3597401Y11252708D01*
X3717798Y11252708D01*
X3717798Y11142472D01*
G37*
G36*
X3581908Y10801858D02*
G01*
X3581908Y10942066D01*
X3722115Y10942066D01*
X3722115Y10801858D01*
G37*
G36*
X3581908Y11011916D02*
G01*
X3581908Y11152124D01*
X3722115Y11152124D01*
X3722115Y11011916D01*
G37*
G36*
X3593084Y11475212D02*
G01*
X3593084Y11585448D01*
X3713479Y11585448D01*
X3713479Y11475212D01*
G37*
G36*
X3593084Y11635232D02*
G01*
X3593084Y11745468D01*
X3713479Y11745468D01*
X3713479Y11635232D01*
G37*
G36*
X3591306Y9866376D02*
G01*
X3591306Y9976612D01*
X3711701Y9976612D01*
X3711701Y9866376D01*
G37*
G36*
X3591306Y10026142D02*
G01*
X3591306Y10136632D01*
X3711701Y10136632D01*
X3711701Y10026142D01*
G37*
G36*
X1487932Y9779254D02*
G01*
X1487932Y9904730D01*
X1648206Y9904730D01*
X1648206Y9779254D01*
G37*
G36*
X1487932Y9969246D02*
G01*
X1487932Y10094722D01*
X1648206Y10094722D01*
X1648206Y9969246D01*
G37*
G36*
X1496822Y10332720D02*
G01*
X1496822Y10473182D01*
X1637283Y10473182D01*
X1637283Y10332720D01*
G37*
G36*
X1496822Y10122916D02*
G01*
X1496822Y10263124D01*
X1637283Y10263124D01*
X1637283Y10122916D01*
G37*
G36*
X1137920Y11763756D02*
G01*
X1137920Y11984228D01*
X1238250Y11984228D01*
X1238250Y11763756D01*
G37*
G36*
X837946Y11763756D02*
G01*
X837946Y11984228D01*
X938276Y11984228D01*
X938276Y11763756D01*
G37*
G36*
X687832Y11763756D02*
G01*
X687832Y11984228D01*
X788162Y11984228D01*
X788162Y11763756D01*
G37*
G36*
X1267968Y12133834D02*
G01*
X1267968Y12234164D01*
X1428242Y12234164D01*
X1428242Y12133834D01*
G37*
G36*
X497840Y12133834D02*
G01*
X497840Y12234164D01*
X658114Y12234164D01*
X658114Y12133834D01*
G37*
G36*
X497840Y11863832D02*
G01*
X497840Y11964162D01*
X658114Y11964162D01*
X658114Y11863832D01*
G37*
G36*
X1267968Y11863832D02*
G01*
X1267968Y11964162D01*
X1428242Y11964162D01*
X1428242Y11863832D01*
G37*
G36*
X3041396Y11368024D02*
G01*
X3041396Y11568430D01*
X3141726Y11568430D01*
X3141726Y11368024D01*
G37*
G36*
X2931414Y11368024D02*
G01*
X2931414Y11568430D01*
X3031744Y11568430D01*
X3031744Y11368024D01*
G37*
G36*
X2821432Y11368024D02*
G01*
X2821432Y11568430D01*
X2921762Y11568430D01*
X2921762Y11368024D01*
G37*
G36*
X2711450Y11368024D02*
G01*
X2711450Y11568430D01*
X2811780Y11568430D01*
X2811780Y11368024D01*
G37*
G36*
X2601468Y11368024D02*
G01*
X2601468Y11568430D01*
X2701798Y11568430D01*
X2701798Y11368024D01*
G37*
G36*
X2491486Y11368024D02*
G01*
X2491486Y11568430D01*
X2591816Y11568430D01*
X2591816Y11368024D01*
G37*
G36*
X2381504Y11368024D02*
G01*
X2381504Y11568430D01*
X2481834Y11568430D01*
X2481834Y11368024D01*
G37*
G36*
X2271522Y11368024D02*
G01*
X2271522Y11568430D01*
X2371852Y11568430D01*
X2371852Y11368024D01*
G37*
G36*
X2161540Y11368024D02*
G01*
X2161540Y11568430D01*
X2261870Y11568430D01*
X2261870Y11368024D01*
G37*
G36*
X2161540Y10408158D02*
G01*
X2161540Y10608310D01*
X2261870Y10608310D01*
X2261870Y10408158D01*
G37*
G36*
X2271522Y10408158D02*
G01*
X2271522Y10608310D01*
X2371852Y10608310D01*
X2371852Y10408158D01*
G37*
G36*
X2381504Y10408158D02*
G01*
X2381504Y10608310D01*
X2481834Y10608310D01*
X2481834Y10408158D01*
G37*
G36*
X2491486Y10408158D02*
G01*
X2491486Y10608310D01*
X2591816Y10608310D01*
X2591816Y10408158D01*
G37*
G36*
X2601468Y10408158D02*
G01*
X2601468Y10608310D01*
X2701798Y10608310D01*
X2701798Y10408158D01*
G37*
G36*
X2711450Y10408158D02*
G01*
X2711450Y10608310D01*
X2811780Y10608310D01*
X2811780Y10408158D01*
G37*
G36*
X2821432Y10408158D02*
G01*
X2821432Y10608310D01*
X2921762Y10608310D01*
X2921762Y10408158D01*
G37*
G36*
X2931414Y10408158D02*
G01*
X2931414Y10608310D01*
X3031744Y10608310D01*
X3031744Y10408158D01*
G37*
G36*
X3041396Y10408158D02*
G01*
X3041396Y10608310D01*
X3141726Y10608310D01*
X3141726Y10408158D01*
G37*
G36*
X2267458Y9762236D02*
G01*
X2267458Y9867646D01*
X2507742Y9867646D01*
X2507742Y9762236D01*
G37*
G36*
X2267458Y9487154D02*
G01*
X2267458Y9592564D01*
X2507742Y9592564D01*
X2507742Y9487154D01*
G37*
G36*
X2477516Y9617202D02*
G01*
X2477516Y9737598D01*
X2602738Y9737598D01*
X2602738Y9617202D01*
G37*
G36*
X2172462Y9617202D02*
G01*
X2172462Y9737598D01*
X2297684Y9737598D01*
X2297684Y9617202D01*
G37*
G36*
X3593846Y10163810D02*
G01*
X3593846Y10274046D01*
X3714242Y10274046D01*
X3714242Y10163810D01*
G37*
G36*
X3593846Y10323830D02*
G01*
X3593846Y10434066D01*
X3714242Y10434066D01*
X3714242Y10323830D01*
G37*
G36*
X3582924Y10441940D02*
G01*
X3582924Y10582148D01*
X3723132Y10582148D01*
X3723132Y10441940D01*
G37*
G36*
X3582924Y10651744D02*
G01*
X3582924Y10792206D01*
X3723132Y10792206D01*
X3723132Y10651744D01*
G37*
G36*
X2328926Y10140950D02*
G01*
X2326386Y10141458D01*
X2324862Y10141712D01*
X2323338Y10142474D01*
X2321814Y10143490D01*
X2321052Y10144252D01*
X2319782Y10145268D01*
X2318512Y10147046D01*
X2318004Y10148062D01*
X2317242Y10149078D01*
X2316734Y10150856D01*
X2316480Y10152380D01*
X2316480Y10226040D01*
X2316734Y10227564D01*
X2317242Y10229342D01*
X2318004Y10230358D01*
X2318512Y10231628D01*
X2319782Y10233152D01*
X2320798Y10234168D01*
X2322068Y10235184D01*
X2323338Y10235946D01*
X2324608Y10236454D01*
X2326386Y10236962D01*
X2328926Y10237470D01*
X2346198Y10237470D01*
X2347214Y10237216D01*
X2348992Y10236962D01*
X2350770Y10236454D01*
X2351532Y10235946D01*
X2352802Y10235438D01*
X2354580Y10233914D01*
X2355596Y10232898D01*
X2356358Y10231882D01*
X2357374Y10230358D01*
X2358390Y10227818D01*
X2358644Y10226040D01*
X2358644Y10152380D01*
X2358390Y10150602D01*
X2357374Y10148062D01*
X2356612Y10146792D01*
X2354580Y10144252D01*
X2353056Y10143236D01*
X2351532Y10142474D01*
X2348992Y10141458D01*
X2347214Y10141204D01*
X2346198Y10140950D01*
G37*
G36*
X2378964Y10140950D02*
G01*
X2377948Y10141204D01*
X2376170Y10141458D01*
X2373630Y10142474D01*
X2372106Y10143236D01*
X2370836Y10144252D01*
X2369566Y10145522D01*
X2368804Y10146792D01*
X2367788Y10148062D01*
X2367280Y10149332D01*
X2366772Y10150856D01*
X2366518Y10152380D01*
X2366518Y10226040D01*
X2366772Y10227564D01*
X2367280Y10229088D01*
X2367788Y10230358D01*
X2368804Y10231882D01*
X2369566Y10232898D01*
X2370582Y10233914D01*
X2372360Y10235438D01*
X2373630Y10235946D01*
X2374392Y10236454D01*
X2376170Y10236962D01*
X2377948Y10237216D01*
X2378964Y10237470D01*
X2396236Y10237470D01*
X2397252Y10237216D01*
X2399030Y10236962D01*
X2400808Y10236454D01*
X2401824Y10235946D01*
X2403094Y10235184D01*
X2404364Y10234168D01*
X2405380Y10233152D01*
X2406650Y10231628D01*
X2407158Y10230358D01*
X2407920Y10229342D01*
X2408428Y10227564D01*
X2408682Y10226040D01*
X2408682Y10152380D01*
X2408428Y10150856D01*
X2407920Y10149078D01*
X2407158Y10148062D01*
X2406650Y10147046D01*
X2405380Y10145268D01*
X2404110Y10144252D01*
X2403348Y10143490D01*
X2401824Y10142474D01*
X2400300Y10141966D01*
X2399030Y10141458D01*
X2397252Y10141204D01*
X2396236Y10140950D01*
G37*
G36*
X2429002Y10140950D02*
G01*
X2426462Y10141458D01*
X2424938Y10141712D01*
X2423414Y10142474D01*
X2421890Y10143490D01*
X2420874Y10144252D01*
X2419604Y10145268D01*
X2418588Y10147046D01*
X2417826Y10148062D01*
X2417318Y10149078D01*
X2416810Y10150856D01*
X2416556Y10152380D01*
X2416556Y10226040D01*
X2416810Y10227564D01*
X2417318Y10229342D01*
X2417826Y10230358D01*
X2418588Y10231628D01*
X2419604Y10233152D01*
X2420620Y10234168D01*
X2422144Y10235184D01*
X2423414Y10235946D01*
X2424684Y10236454D01*
X2426462Y10236962D01*
X2429002Y10237470D01*
X2446274Y10237470D01*
X2447290Y10237216D01*
X2448814Y10236962D01*
X2450592Y10236454D01*
X2451608Y10235946D01*
X2452878Y10235438D01*
X2454656Y10233914D01*
X2455672Y10232898D01*
X2456434Y10231882D01*
X2457196Y10230358D01*
X2457958Y10229088D01*
X2458212Y10227818D01*
X2458720Y10226040D01*
X2458720Y10152380D01*
X2458212Y10150602D01*
X2457958Y10149332D01*
X2455672Y10145522D01*
X2454402Y10144252D01*
X2453132Y10143236D01*
X2451608Y10142474D01*
X2450338Y10141966D01*
X2448814Y10141458D01*
X2447290Y10141204D01*
X2446274Y10140950D01*
G37*
G36*
X2427732Y10235184D02*
G01*
X2425954Y10235438D01*
X2424938Y10235946D01*
X2423414Y10236454D01*
X2421890Y10237470D01*
X2420874Y10238232D01*
X2419858Y10239248D01*
X2418588Y10240772D01*
X2417826Y10242042D01*
X2417318Y10243058D01*
X2416810Y10245090D01*
X2416556Y10246360D01*
X2416556Y10320020D01*
X2416810Y10321290D01*
X2417318Y10323322D01*
X2417826Y10324338D01*
X2418588Y10325608D01*
X2419858Y10327386D01*
X2420620Y10328148D01*
X2421890Y10329164D01*
X2423414Y10329926D01*
X2424684Y10330434D01*
X2426462Y10330942D01*
X2429002Y10331450D01*
X2446274Y10331450D01*
X2447290Y10331196D01*
X2448814Y10330942D01*
X2450592Y10330434D01*
X2453132Y10329164D01*
X2454656Y10327894D01*
X2455418Y10327132D01*
X2456434Y10325862D01*
X2457958Y10322814D01*
X2458212Y10321798D01*
X2458720Y10320020D01*
X2458720Y10246360D01*
X2458212Y10244582D01*
X2457958Y10243312D01*
X2457196Y10242042D01*
X2456434Y10240518D01*
X2455418Y10239248D01*
X2454402Y10238232D01*
X2453132Y10237216D01*
X2451608Y10236454D01*
X2450338Y10235946D01*
X2449322Y10235438D01*
X2447290Y10235184D01*
G37*
G36*
X2377948Y10235184D02*
G01*
X2375916Y10235438D01*
X2374900Y10235946D01*
X2373630Y10236454D01*
X2372106Y10237216D01*
X2370836Y10238232D01*
X2369820Y10239248D01*
X2368804Y10240518D01*
X2367788Y10242042D01*
X2367280Y10243312D01*
X2366772Y10245090D01*
X2366518Y10246360D01*
X2366518Y10320020D01*
X2366772Y10321290D01*
X2367788Y10324338D01*
X2368804Y10325862D01*
X2369820Y10327132D01*
X2370582Y10327894D01*
X2372106Y10329164D01*
X2373630Y10329926D01*
X2374392Y10330434D01*
X2376170Y10330942D01*
X2377948Y10331196D01*
X2378964Y10331450D01*
X2396236Y10331450D01*
X2397252Y10331196D01*
X2399030Y10330942D01*
X2400808Y10330434D01*
X2403348Y10329164D01*
X2404364Y10328148D01*
X2405380Y10327386D01*
X2406650Y10325608D01*
X2407158Y10324338D01*
X2407920Y10323322D01*
X2408428Y10321290D01*
X2408682Y10320020D01*
X2408682Y10246360D01*
X2408428Y10245090D01*
X2407920Y10243058D01*
X2407158Y10241788D01*
X2406650Y10240772D01*
X2405380Y10239248D01*
X2404110Y10238232D01*
X2403348Y10237470D01*
X2401824Y10236454D01*
X2400300Y10235946D01*
X2399284Y10235438D01*
X2397252Y10235184D01*
G37*
G36*
X2327656Y10235184D02*
G01*
X2325878Y10235438D01*
X2324862Y10235946D01*
X2323338Y10236454D01*
X2321814Y10237470D01*
X2321052Y10238232D01*
X2319782Y10239248D01*
X2318512Y10240772D01*
X2317750Y10242042D01*
X2317242Y10243058D01*
X2316734Y10245090D01*
X2316480Y10246360D01*
X2316480Y10320020D01*
X2316734Y10321290D01*
X2317242Y10323322D01*
X2318004Y10324338D01*
X2318512Y10325608D01*
X2319782Y10327386D01*
X2320798Y10328148D01*
X2321814Y10329164D01*
X2323338Y10329926D01*
X2324608Y10330434D01*
X2326386Y10330942D01*
X2328926Y10331450D01*
X2346198Y10331450D01*
X2347214Y10331196D01*
X2348992Y10330942D01*
X2350770Y10330434D01*
X2351532Y10329926D01*
X2353310Y10329164D01*
X2354580Y10327894D01*
X2355596Y10327132D01*
X2356358Y10325862D01*
X2357374Y10324338D01*
X2357882Y10322814D01*
X2358390Y10321798D01*
X2358644Y10320020D01*
X2358644Y10246360D01*
X2358390Y10244582D01*
X2357374Y10242042D01*
X2356612Y10240518D01*
X2355596Y10239248D01*
X2354580Y10238232D01*
X2353056Y10237216D01*
X2351532Y10236454D01*
X2350262Y10235946D01*
X2349246Y10235438D01*
X2347214Y10235184D01*
G37*
G36*
X2660142Y10101072D02*
G01*
X2660142Y10211308D01*
X2775458Y10211308D01*
X2775458Y10101072D01*
G37*
G36*
X2660142Y10261092D02*
G01*
X2660142Y10371328D01*
X2775458Y10371328D01*
X2775458Y10261092D01*
G37*
G36*
X2507742Y9956292D02*
G01*
X2507742Y10066528D01*
X2623058Y10066528D01*
X2623058Y9956292D01*
G37*
G36*
X2507742Y9796272D02*
G01*
X2507742Y9906508D01*
X2623058Y9906508D01*
X2623058Y9796272D01*
G37*
G36*
X2525268Y10069068D02*
G01*
X2525268Y10149332D01*
X2605532Y10149332D01*
X2605532Y10069068D01*
G37*
G36*
X2525268Y10170668D02*
G01*
X2525268Y10250932D01*
X2605532Y10250932D01*
X2605532Y10170668D01*
G37*
G36*
X1502918Y10858754D02*
G01*
X1502918Y10969244D01*
X1623060Y10969244D01*
X1623060Y10858754D01*
G37*
G36*
X1502918Y11018774D02*
G01*
X1502918Y11129010D01*
X1623060Y11129010D01*
X1623060Y11018774D01*
G37*
G36*
X1502918Y10713720D02*
G01*
X1502918Y10824210D01*
X1623060Y10824210D01*
X1623060Y10713720D01*
G37*
G36*
X1502918Y10553700D02*
G01*
X1502918Y10664190D01*
X1623060Y10664190D01*
X1623060Y10553700D01*
G37*
G36*
X2938272Y9820402D02*
G01*
X2938272Y9940798D01*
X3048508Y9940798D01*
X3048508Y9820402D01*
G37*
G36*
X3098292Y9820402D02*
G01*
X3098292Y9940798D01*
X3208528Y9940798D01*
X3208528Y9820402D01*
G37*
G36*
X168910Y10313924D02*
G01*
X168910Y10501884D01*
X356870Y10501884D01*
X356870Y10313924D01*
G37*
D67*
G01*
X262991Y10661980D03*
G01*
X262991Y10915980D03*
G01*
X262991Y11169980D03*
G36*
X2271776Y12100814D02*
G01*
X2271776Y12221210D01*
X2382266Y12221210D01*
X2382266Y12100814D01*
G37*
G36*
X2111756Y12100814D02*
G01*
X2111756Y12221210D01*
X2222246Y12221210D01*
X2222246Y12100814D01*
G37*
G36*
X1745742Y12093956D02*
G01*
X1745742Y12234164D01*
X1886204Y12234164D01*
X1886204Y12093956D01*
G37*
G36*
X1955800Y12093956D02*
G01*
X1955800Y12234164D01*
X2096262Y12234164D01*
X2096262Y12093956D01*
G37*
G36*
X1298702Y10862310D02*
G01*
X1298702Y10897362D01*
X1378966Y10897362D01*
X1378966Y10862310D01*
G37*
G36*
X1298702Y10907268D02*
G01*
X1298702Y10942574D01*
X1378966Y10942574D01*
X1378966Y10907268D01*
G37*
G36*
X1298702Y10952226D02*
G01*
X1298702Y10987532D01*
X1378966Y10987532D01*
X1378966Y10952226D01*
G37*
G36*
X1298702Y10997438D02*
G01*
X1298702Y11032490D01*
X1378966Y11032490D01*
X1378966Y10997438D01*
G37*
G36*
X1008634Y10997438D02*
G01*
X1008634Y11032490D01*
X1088898Y11032490D01*
X1088898Y10997438D01*
G37*
G36*
X1008634Y10952226D02*
G01*
X1008634Y10987532D01*
X1088898Y10987532D01*
X1088898Y10952226D01*
G37*
G36*
X1008634Y10907268D02*
G01*
X1008634Y10942574D01*
X1088898Y10942574D01*
X1088898Y10907268D01*
G37*
G36*
X1008634Y10862310D02*
G01*
X1008634Y10897362D01*
X1088898Y10897362D01*
X1088898Y10862310D01*
G37*
G36*
X1103630Y10857230D02*
G01*
X1103630Y11037570D01*
X1283970Y11037570D01*
X1283970Y10857230D01*
G37*
G36*
X1527556Y11762232D02*
G01*
X1527556Y11913362D01*
X1672843Y11913362D01*
X1672843Y11762232D01*
G37*
G36*
X1527556Y11556238D02*
G01*
X1527556Y11707368D01*
X1672843Y11707368D01*
X1672843Y11556238D01*
G37*
G36*
X1551940Y11383772D02*
G01*
X1551940Y11474450D01*
X1648460Y11474450D01*
X1648460Y11383772D01*
G37*
G36*
X1551940Y11233150D02*
G01*
X1551940Y11323828D01*
X1648460Y11323828D01*
X1648460Y11233150D01*
G37*
G36*
X5544058Y11832082D02*
G01*
X5544058Y11942318D01*
X5644388Y11942318D01*
X5644388Y11832082D01*
G37*
G36*
X5684012Y11832082D02*
G01*
X5684012Y11942318D01*
X5784342Y11942318D01*
X5784342Y11832082D01*
G37*
G36*
X2238502Y11636248D02*
G01*
X2238502Y11796522D01*
X2384552Y11796522D01*
X2384552Y11636248D01*
G37*
G36*
X2238502Y11876278D02*
G01*
X2238502Y12036552D01*
X2384552Y12036552D01*
X2384552Y11876278D01*
G37*
G36*
X917448Y10061702D02*
G01*
X917448Y10207752D01*
X1077722Y10207752D01*
X1077722Y10061702D01*
G37*
G36*
X1157478Y10061702D02*
G01*
X1157478Y10207752D01*
X1317752Y10207752D01*
X1317752Y10061702D01*
G37*
G36*
X1476502Y9641078D02*
G01*
X1476502Y9801352D01*
X1622552Y9801352D01*
X1622552Y9641078D01*
G37*
G36*
X1476502Y9401048D02*
G01*
X1476502Y9561322D01*
X1622552Y9561322D01*
X1622552Y9401048D01*
G37*
M02*
