G04 Layer: BottomSolderMaskLayer*
G04 EasyEDA v6.4.29, 2022-01-20 17:46:20*
G04 fb4b0ff46d504c98a6534b0bae3310fd,dc92750a051249c6af70c8c7d89aaf1b,10*
G04 Gerber Generator version 0.2*
G04 Scale: 100 percent, Rotated: No, Reflected: No *
G04 Dimensions in millimeters *
G04 leading zeros omitted , absolute positions ,4 integer and 5 decimal *
%FSLAX45Y45*%
%MOMM*%

%ADD66C,1.7112*%
%ADD67C,1.8796*%
%ADD70C,1.6256*%

%LPD*%
G36*
X4436872Y11385804D02*
G01*
X4436872Y11706098D01*
X4577080Y11706098D01*
X4577080Y11385804D01*
G37*
G36*
X4636770Y11385804D02*
G01*
X4636770Y11706098D01*
X4777232Y11706098D01*
X4777232Y11385804D01*
G37*
G36*
X4836922Y11385804D02*
G01*
X4836922Y11706098D01*
X4977130Y11706098D01*
X4977130Y11385804D01*
G37*
G36*
X5036820Y11385804D02*
G01*
X5036820Y11706098D01*
X5177282Y11706098D01*
X5177282Y11385804D01*
G37*
G36*
X5236972Y11385804D02*
G01*
X5236972Y11706098D01*
X5377180Y11706098D01*
X5377180Y11385804D01*
G37*
G36*
X5436870Y11385804D02*
G01*
X5436870Y11706098D01*
X5577078Y11706098D01*
X5577078Y11385804D01*
G37*
G36*
X5636768Y11385804D02*
G01*
X5636768Y11706098D01*
X5777230Y11706098D01*
X5777230Y11385804D01*
G37*
G36*
X5836920Y11385804D02*
G01*
X5836920Y11706098D01*
X5977128Y11706098D01*
X5977128Y11385804D01*
G37*
G36*
X5836920Y9885934D02*
G01*
X5836920Y10206228D01*
X5977128Y10206228D01*
X5977128Y9885934D01*
G37*
G36*
X5636768Y9885934D02*
G01*
X5636768Y10206228D01*
X5777230Y10206228D01*
X5777230Y9885934D01*
G37*
G36*
X5436870Y9885934D02*
G01*
X5436870Y10206228D01*
X5577078Y10206228D01*
X5577078Y9885934D01*
G37*
G36*
X5236972Y9885934D02*
G01*
X5236972Y10206228D01*
X5377180Y10206228D01*
X5377180Y9885934D01*
G37*
G36*
X5036820Y9885934D02*
G01*
X5036820Y10206228D01*
X5177282Y10206228D01*
X5177282Y9885934D01*
G37*
G36*
X4836922Y9885934D02*
G01*
X4836922Y10206228D01*
X4977130Y10206228D01*
X4977130Y9885934D01*
G37*
G36*
X4636770Y9885934D02*
G01*
X4636770Y10206228D01*
X4777232Y10206228D01*
X4777232Y9885934D01*
G37*
G36*
X4436872Y9885934D02*
G01*
X4436872Y10206228D01*
X4577080Y10206228D01*
X4577080Y9885934D01*
G37*
G36*
X4947412Y9673082D02*
G01*
X4947412Y9783318D01*
X5047742Y9783318D01*
X5047742Y9673082D01*
G37*
G36*
X4807458Y9673082D02*
G01*
X4807458Y9783318D01*
X4907788Y9783318D01*
X4907788Y9673082D01*
G37*
G36*
X2593340Y11888470D02*
G01*
X2593340Y12059412D01*
X2764536Y12059412D01*
X2764536Y11888470D01*
G37*
D66*
G01*
X2932988Y11973966D03*
G01*
X3186988Y11973966D03*
G01*
X3440988Y11973966D03*
D67*
G01*
X5247995Y9564979D03*
G01*
X4993995Y9564979D03*
G01*
X4739995Y9564979D03*
G01*
X4485995Y9564979D03*
G01*
X4231995Y9564979D03*
G01*
X3977995Y9564979D03*
G01*
X3723995Y9564979D03*
G01*
X3469995Y9564979D03*
G01*
X3215995Y9564979D03*
G01*
X2961995Y9564979D03*
D70*
G01*
X914400Y11606199D03*
G01*
X914400Y11406200D03*
G36*
X168910Y10313924D02*
G01*
X168910Y10501884D01*
X356870Y10501884D01*
X356870Y10313924D01*
G37*
D67*
G01*
X262991Y10661980D03*
G01*
X262991Y10915980D03*
G01*
X262991Y11169980D03*
G36*
X5926836Y9404858D02*
G01*
X5926836Y9645142D01*
X6032246Y9645142D01*
X6032246Y9404858D01*
G37*
G36*
X5651754Y9404858D02*
G01*
X5651754Y9645142D01*
X5757164Y9645142D01*
X5757164Y9404858D01*
G37*
G36*
X5781802Y9614916D02*
G01*
X5781802Y9740138D01*
X5902198Y9740138D01*
X5902198Y9614916D01*
G37*
G36*
X5781802Y9309862D02*
G01*
X5781802Y9435084D01*
X5902198Y9435084D01*
X5902198Y9309862D01*
G37*
M02*
