G04 Layer: BottomSilkscreenLayer*
G04 EasyEDA v6.4.29, 2022-01-20 17:46:20*
G04 fb4b0ff46d504c98a6534b0bae3310fd,dc92750a051249c6af70c8c7d89aaf1b,10*
G04 Gerber Generator version 0.2*
G04 Scale: 100 percent, Rotated: No, Reflected: No *
G04 Dimensions in millimeters *
G04 leading zeros omitted , absolute positions ,4 integer and 5 decimal *
%FSLAX45Y45*%
%MOMM*%

%ADD10C,0.2540*%
%ADD53C,0.2032*%
%ADD54C,0.1270*%
%ADD58C,0.1524*%
%ADD60C,0.1999*%

%LPD*%
D58*
X4850815Y9931908D02*
G01*
X4855895Y9942322D01*
X4866309Y9952736D01*
X4876723Y9957816D01*
X4897551Y9957816D01*
X4907965Y9952736D01*
X4918379Y9942322D01*
X4923459Y9931908D01*
X4928793Y9916160D01*
X4928793Y9890252D01*
X4923459Y9874758D01*
X4918379Y9864344D01*
X4907965Y9853930D01*
X4897551Y9848850D01*
X4876723Y9848850D01*
X4866309Y9853930D01*
X4855895Y9864344D01*
X4850815Y9874758D01*
X4806111Y9957816D02*
G01*
X4748961Y9957816D01*
X4780203Y9916160D01*
X4764455Y9916160D01*
X4754041Y9911080D01*
X4748961Y9906000D01*
X4743627Y9890252D01*
X4743627Y9879838D01*
X4748961Y9864344D01*
X4759375Y9853930D01*
X4774869Y9848850D01*
X4790617Y9848850D01*
X4806111Y9853930D01*
X4811191Y9859010D01*
X4816525Y9869424D01*
X4709337Y9936988D02*
G01*
X4699177Y9942322D01*
X4683429Y9957816D01*
X4683429Y9848850D01*
D53*
X4407001Y11595989D02*
G01*
X4407001Y9995992D01*
X6006998Y9995992D02*
G01*
X6006998Y11595989D01*
D10*
X4956467Y9658400D02*
G01*
X5036469Y9658400D01*
X5067449Y9769381D02*
G01*
X5067449Y9689381D01*
X4956467Y9800363D02*
G01*
X5036469Y9800363D01*
X4898877Y9657816D02*
G01*
X4818882Y9657816D01*
X4898877Y9799779D02*
G01*
X4818882Y9799779D01*
X4787900Y9768799D02*
G01*
X4787900Y9688796D01*
D54*
X6041989Y9654979D02*
G01*
X6041989Y9674987D01*
X5911992Y9674987D01*
X5911992Y9654979D01*
X6041989Y9654979D01*
X6041989Y9394985D01*
X5911992Y9394985D01*
X5771989Y9395002D02*
G01*
X5641992Y9395002D01*
X5641992Y9654997D01*
X5771989Y9654997D01*
X5771989Y9675007D01*
X5641992Y9675007D01*
X5641992Y9654997D01*
X5911992Y9665002D02*
G01*
X6041989Y9665002D01*
X5641992Y9664984D02*
G01*
X5771989Y9664984D01*
D60*
G75*
G01*
X4508500Y11738483D02*
G02*
X4508932Y11738483I216J10005D01*
D10*
G75*
G01*
X5067452Y9769381D02*
G03*
X5036469Y9800364I-30983J0D01*
G75*
G01*
X5036469Y9658398D02*
G03*
X5067452Y9689381I0J30983D01*
G75*
G01*
X4818883Y9799782D02*
G03*
X4787900Y9768799I0J-30983D01*
G75*
G01*
X4787900Y9688800D02*
G03*
X4818883Y9657817I30983J0D01*
M02*
