G04 Layer: TopSilkscreenLayer*
G04 EasyEDA v6.4.29, 2022-01-20 17:46:20*
G04 fb4b0ff46d504c98a6534b0bae3310fd,dc92750a051249c6af70c8c7d89aaf1b,10*
G04 Gerber Generator version 0.2*
G04 Scale: 100 percent, Rotated: No, Reflected: No *
G04 Dimensions in millimeters *
G04 leading zeros omitted , absolute positions ,4 integer and 5 decimal *
%FSLAX45Y45*%
%MOMM*%

%ADD10C,0.2540*%
%ADD53C,0.2032*%
%ADD54C,0.1270*%
%ADD55C,0.0099*%
%ADD56C,0.0635*%
%ADD57C,0.2000*%
%ADD58C,0.1524*%
%ADD59C,0.0800*%
%ADD60C,0.1999*%
%ADD61C,0.2997*%
%ADD62C,0.1016*%

%LPD*%
D62*
X790778Y11850344D02*
G01*
X894664Y11850344D01*
X842848Y11798274D02*
G01*
X842848Y11902160D01*
X842848Y11061674D02*
G01*
X842848Y11165560D01*
D58*
X854710Y10919206D02*
G01*
X932687Y10919206D01*
X948182Y10924540D01*
X958596Y10934954D01*
X963930Y10950448D01*
X963930Y10960862D01*
X958596Y10976356D01*
X948182Y10986770D01*
X932687Y10992104D01*
X854710Y10992104D01*
X870458Y11088624D02*
G01*
X860044Y11083544D01*
X854710Y11067796D01*
X854710Y11057636D01*
X860044Y11041888D01*
X875537Y11031474D01*
X901446Y11026394D01*
X927608Y11026394D01*
X948182Y11031474D01*
X958596Y11041888D01*
X963930Y11057636D01*
X963930Y11062716D01*
X958596Y11078210D01*
X948182Y11088624D01*
X932687Y11093958D01*
X927608Y11093958D01*
X911860Y11088624D01*
X901446Y11078210D01*
X896366Y11062716D01*
X896366Y11057636D01*
X901446Y11041888D01*
X911860Y11031474D01*
X927608Y11026394D01*
X1383792Y11812778D02*
G01*
X1373378Y11807444D01*
X1362964Y11797030D01*
X1357884Y11786870D01*
X1357884Y11766042D01*
X1362964Y11755628D01*
X1373378Y11745214D01*
X1383792Y11739880D01*
X1399540Y11734800D01*
X1425448Y11734800D01*
X1440942Y11739880D01*
X1451356Y11745214D01*
X1461770Y11755628D01*
X1466850Y11766042D01*
X1466850Y11786870D01*
X1461770Y11797030D01*
X1451356Y11807444D01*
X1440942Y11812778D01*
X1383792Y11852148D02*
G01*
X1378712Y11852148D01*
X1368298Y11857482D01*
X1362964Y11862562D01*
X1357884Y11872976D01*
X1357884Y11893804D01*
X1362964Y11904218D01*
X1368298Y11909298D01*
X1378712Y11914632D01*
X1389126Y11914632D01*
X1399540Y11909298D01*
X1415034Y11898884D01*
X1466850Y11847068D01*
X1466850Y11919712D01*
X1394206Y12021566D02*
G01*
X1409700Y12016486D01*
X1420114Y12006072D01*
X1425448Y11990324D01*
X1425448Y11985244D01*
X1420114Y11969750D01*
X1409700Y11959336D01*
X1394206Y11954002D01*
X1389126Y11954002D01*
X1373378Y11959336D01*
X1362964Y11969750D01*
X1357884Y11985244D01*
X1357884Y11990324D01*
X1362964Y12006072D01*
X1373378Y12016486D01*
X1394206Y12021566D01*
X1420114Y12021566D01*
X1446276Y12016486D01*
X1461770Y12006072D01*
X1466850Y11990324D01*
X1466850Y11979910D01*
X1461770Y11964416D01*
X1451356Y11959336D01*
X1383284Y11353800D02*
G01*
X1492250Y11353800D01*
X1383284Y11353800D02*
G01*
X1383284Y11400536D01*
X1388364Y11416030D01*
X1393698Y11421364D01*
X1404112Y11426444D01*
X1414526Y11426444D01*
X1424940Y11421364D01*
X1430020Y11416030D01*
X1435100Y11400536D01*
X1435100Y11353800D01*
X1435100Y11390122D02*
G01*
X1492250Y11426444D01*
X1383284Y11512804D02*
G01*
X1455928Y11460734D01*
X1455928Y11538712D01*
X1383284Y11512804D02*
G01*
X1492250Y11512804D01*
X1383284Y11635486D02*
G01*
X1383284Y11583416D01*
X1430020Y11578336D01*
X1424940Y11583416D01*
X1419606Y11598910D01*
X1419606Y11614658D01*
X1424940Y11630152D01*
X1435100Y11640566D01*
X1450848Y11645900D01*
X1461262Y11645900D01*
X1476756Y11640566D01*
X1487170Y11630152D01*
X1492250Y11614658D01*
X1492250Y11598910D01*
X1487170Y11583416D01*
X1482090Y11578336D01*
X1471676Y11573002D01*
X5740908Y12090908D02*
G01*
X5735828Y12101322D01*
X5725414Y12111736D01*
X5715000Y12116816D01*
X5694172Y12116816D01*
X5683758Y12111736D01*
X5673598Y12101322D01*
X5668264Y12090908D01*
X5663184Y12075160D01*
X5663184Y12049252D01*
X5668264Y12033758D01*
X5673598Y12023344D01*
X5683758Y12012930D01*
X5694172Y12007850D01*
X5715000Y12007850D01*
X5725414Y12012930D01*
X5735828Y12023344D01*
X5740908Y12033758D01*
X5785612Y12116816D02*
G01*
X5842762Y12116816D01*
X5811774Y12075160D01*
X5827268Y12075160D01*
X5837682Y12070080D01*
X5842762Y12065000D01*
X5848096Y12049252D01*
X5848096Y12038838D01*
X5842762Y12023344D01*
X5832348Y12012930D01*
X5816854Y12007850D01*
X5801360Y12007850D01*
X5785612Y12012930D01*
X5780532Y12018010D01*
X5775198Y12028424D01*
X5913628Y12116816D02*
G01*
X5897880Y12111736D01*
X5887466Y12095988D01*
X5882386Y12070080D01*
X5882386Y12054586D01*
X5887466Y12028424D01*
X5897880Y12012930D01*
X5913628Y12007850D01*
X5923788Y12007850D01*
X5939536Y12012930D01*
X5949950Y12028424D01*
X5955030Y12054586D01*
X5955030Y12070080D01*
X5949950Y12095988D01*
X5939536Y12111736D01*
X5923788Y12116816D01*
X5913628Y12116816D01*
X2092452Y11910314D02*
G01*
X2082038Y11905234D01*
X2071624Y11894820D01*
X2066543Y11884406D01*
X2066543Y11863578D01*
X2071624Y11853164D01*
X2082038Y11842750D01*
X2092452Y11837670D01*
X2108200Y11832590D01*
X2134108Y11832590D01*
X2149602Y11837670D01*
X2160016Y11842750D01*
X2170430Y11853164D01*
X2175510Y11863578D01*
X2175510Y11884406D01*
X2170430Y11894820D01*
X2160016Y11905234D01*
X2149602Y11910314D01*
X2066543Y11955018D02*
G01*
X2066543Y12012168D01*
X2108200Y11981180D01*
X2108200Y11996674D01*
X2113280Y12007088D01*
X2118360Y12012168D01*
X2134108Y12017502D01*
X2144522Y12017502D01*
X2160016Y12012168D01*
X2170430Y12001754D01*
X2175510Y11986260D01*
X2175510Y11970766D01*
X2170430Y11955018D01*
X2165350Y11949938D01*
X2154936Y11944604D01*
X2092452Y12056872D02*
G01*
X2087372Y12056872D01*
X2076957Y12062206D01*
X2071624Y12067286D01*
X2066543Y12077700D01*
X2066543Y12098528D01*
X2071624Y12108942D01*
X2076957Y12114022D01*
X2087372Y12119356D01*
X2097786Y12119356D01*
X2108200Y12114022D01*
X2123694Y12103608D01*
X2175510Y12051792D01*
X2175510Y12124436D01*
X1191514Y10353548D02*
G01*
X1186434Y10363962D01*
X1176020Y10374376D01*
X1165606Y10379456D01*
X1144778Y10379456D01*
X1134364Y10374376D01*
X1123950Y10363962D01*
X1118870Y10353548D01*
X1113790Y10337800D01*
X1113790Y10311892D01*
X1118870Y10296398D01*
X1123950Y10285984D01*
X1134364Y10275570D01*
X1144778Y10270490D01*
X1165606Y10270490D01*
X1176020Y10275570D01*
X1186434Y10285984D01*
X1191514Y10296398D01*
X1236218Y10379456D02*
G01*
X1293368Y10379456D01*
X1262380Y10337800D01*
X1277874Y10337800D01*
X1288288Y10332720D01*
X1293368Y10327640D01*
X1298702Y10311892D01*
X1298702Y10301478D01*
X1293368Y10285984D01*
X1282954Y10275570D01*
X1267460Y10270490D01*
X1251966Y10270490D01*
X1236218Y10275570D01*
X1231138Y10280650D01*
X1225804Y10291064D01*
X1343406Y10379456D02*
G01*
X1400556Y10379456D01*
X1369314Y10337800D01*
X1384808Y10337800D01*
X1395222Y10332720D01*
X1400556Y10327640D01*
X1405636Y10311892D01*
X1405636Y10301478D01*
X1400556Y10285984D01*
X1390142Y10275570D01*
X1374394Y10270490D01*
X1358900Y10270490D01*
X1343406Y10275570D01*
X1338072Y10280650D01*
X1332992Y10291064D01*
X1768221Y9527159D02*
G01*
X1778635Y9532493D01*
X1789049Y9542907D01*
X1794382Y9553067D01*
X1794382Y9573895D01*
X1789049Y9584309D01*
X1778635Y9594723D01*
X1768221Y9600057D01*
X1752727Y9605137D01*
X1726818Y9605137D01*
X1711071Y9600057D01*
X1700657Y9594723D01*
X1690243Y9584309D01*
X1685163Y9573895D01*
X1685163Y9553067D01*
X1690243Y9542907D01*
X1700657Y9532493D01*
X1711071Y9527159D01*
X1794382Y9482455D02*
G01*
X1794382Y9425305D01*
X1752727Y9456547D01*
X1752727Y9441053D01*
X1747393Y9430639D01*
X1742313Y9425305D01*
X1726818Y9420225D01*
X1716405Y9420225D01*
X1700657Y9425305D01*
X1690243Y9435719D01*
X1685163Y9451467D01*
X1685163Y9466961D01*
X1690243Y9482455D01*
X1695577Y9487789D01*
X1705991Y9492869D01*
X1794382Y9333865D02*
G01*
X1721485Y9385935D01*
X1721485Y9307957D01*
X1794382Y9333865D02*
G01*
X1685163Y9333865D01*
G36*
X3611981Y10961979D02*
G01*
X3608882Y10961573D01*
X3605987Y10960455D01*
X3603447Y10958626D01*
X3601465Y10956188D01*
X3600094Y10953343D01*
X3599535Y10950295D01*
X3599738Y10947146D01*
X3600094Y10945622D01*
X3601465Y10942777D01*
X3603447Y10940389D01*
X3605987Y10938560D01*
X3607409Y10937849D01*
X3610457Y10937087D01*
X3613556Y10937087D01*
X3616604Y10937849D01*
X3619347Y10939373D01*
X3621633Y10941507D01*
X3623310Y10944148D01*
X3624275Y10947146D01*
X3624478Y10950295D01*
X3623868Y10953343D01*
X3622548Y10956188D01*
X3620566Y10958626D01*
X3618026Y10960455D01*
X3615131Y10961573D01*
G37*
G36*
X1607007Y10338003D02*
G01*
X1603908Y10337596D01*
X1602384Y10337139D01*
X1599641Y10335615D01*
X1597355Y10333482D01*
X1595678Y10330789D01*
X1594713Y10327843D01*
X1594510Y10324693D01*
X1595120Y10321645D01*
X1596440Y10318800D01*
X1598472Y10316362D01*
X1601012Y10314533D01*
X1603908Y10313365D01*
X1607007Y10313009D01*
X1610106Y10313365D01*
X1613052Y10314533D01*
X1615541Y10316362D01*
X1617573Y10318800D01*
X1618894Y10321645D01*
X1619504Y10324693D01*
X1619300Y10327843D01*
X1618335Y10330789D01*
X1616659Y10333482D01*
X1614373Y10335615D01*
X1611630Y10337139D01*
X1608582Y10337901D01*
G37*
G36*
X3612997Y10602010D02*
G01*
X3609898Y10601604D01*
X3607003Y10600436D01*
X3604463Y10598607D01*
X3602431Y10596168D01*
X3601110Y10593374D01*
X3600704Y10591850D01*
X3600551Y10588701D01*
X3600704Y10587126D01*
X3601720Y10584180D01*
X3602431Y10582808D01*
X3604463Y10580370D01*
X3607003Y10578541D01*
X3609898Y10577372D01*
X3612997Y10576966D01*
X3616096Y10577372D01*
X3619042Y10578541D01*
X3621582Y10580370D01*
X3623564Y10582808D01*
X3624884Y10585653D01*
X3625494Y10588701D01*
X3625291Y10591850D01*
X3624326Y10594797D01*
X3622649Y10597438D01*
X3620363Y10599623D01*
X3617620Y10601096D01*
X3614572Y10601909D01*
G37*
G36*
X1892706Y12216485D02*
G01*
X1889658Y12215876D01*
X1886813Y12214555D01*
X1884375Y12212523D01*
X1882546Y12210034D01*
X1881378Y12207087D01*
X1881022Y12203988D01*
X1881378Y12200890D01*
X1882546Y12197943D01*
X1884375Y12195454D01*
X1886813Y12193422D01*
X1889658Y12192101D01*
X1892706Y12191492D01*
X1895856Y12191695D01*
X1898853Y12192660D01*
X1901494Y12194336D01*
X1903628Y12196622D01*
X1905152Y12199366D01*
X1905914Y12202414D01*
X1905914Y12205563D01*
X1905152Y12208611D01*
X1903628Y12211354D01*
X1901494Y12213640D01*
X1898853Y12215317D01*
X1895856Y12216282D01*
G37*
D53*
X3935704Y11429974D02*
G01*
X3935704Y11707698D01*
X4038396Y11707698D01*
X3935704Y10160000D02*
G01*
X3935704Y9882301D01*
X4038396Y9882301D01*
X5809488Y11707698D02*
G01*
X6511086Y11707698D01*
X6511086Y9882301D01*
X5809488Y9882301D01*
X832434Y10022408D02*
G01*
X1188034Y10022408D01*
X1188034Y9367012D01*
X832434Y9367012D01*
X832434Y10022408D01*
D54*
X2869488Y11846966D02*
G01*
X2805988Y11910466D01*
X2742488Y11846966D01*
X2615488Y11846966D01*
X2551988Y11910466D01*
X2551988Y12037466D01*
X2615488Y12100966D01*
X2742488Y12100966D01*
X2805988Y12037466D01*
X2869488Y12100966D01*
X2996488Y12100966D01*
X3059988Y12037466D01*
X3123488Y12100966D01*
X3250488Y12100966D01*
X3313988Y12037466D01*
X3377488Y12100966D01*
X3504488Y12100966D01*
X3567988Y12037466D01*
X3567988Y11910466D01*
X3504488Y11846966D01*
X3377488Y11846966D01*
X3313988Y11910466D01*
X3250488Y11846966D01*
X3123488Y11846966D01*
X3059988Y11910466D01*
X2996488Y11846966D01*
X2869488Y11846966D01*
X1902002Y11637772D02*
G01*
X4188002Y11637772D01*
X4188002Y10266172D01*
X1902002Y10266172D01*
X1902002Y11637772D01*
X1759991Y9521977D02*
G01*
X4359986Y9521977D01*
X4359986Y12121972D01*
X1759991Y12121972D01*
X1759991Y9521977D01*
D55*
X3010001Y11971985D02*
G01*
X3110001Y11971985D01*
D54*
X1244600Y11359591D02*
G01*
X1244600Y11449608D01*
X1307261Y10301224D02*
G01*
X1307261Y10391216D01*
X1084402Y11806199D02*
G01*
X1084402Y11556187D01*
X1134414Y11556187D01*
X1134414Y11456187D01*
X1084402Y11456187D01*
X1084402Y11206200D01*
X634415Y11206200D01*
X634415Y11806199D01*
X1084402Y11806199D01*
D53*
X787222Y10525709D02*
G01*
X832231Y10525709D01*
X832231Y10065715D01*
X787222Y10065715D01*
X587222Y10065715D02*
G01*
X542239Y10065715D01*
X542239Y10525709D01*
X587222Y10525709D01*
X787222Y10195712D02*
G01*
X587222Y10195712D01*
X971194Y11190401D02*
G01*
X971194Y10602798D01*
X451205Y10602798D01*
X451205Y11190401D01*
X971194Y11190401D01*
D54*
X3707612Y11277600D02*
G01*
X3607612Y11277600D01*
D56*
X3654501Y10959490D02*
G01*
X3637000Y10976965D01*
X3651986Y10991977D01*
X3669487Y10974476D01*
X3654501Y10959490D01*
D54*
X3603269Y11610416D02*
G01*
X3703269Y11610416D01*
X3601491Y10001427D02*
G01*
X3701491Y10001427D01*
D56*
X1564487Y10315473D02*
G01*
X1581988Y10297972D01*
X1567002Y10282986D01*
X1549501Y10300487D01*
X1564487Y10315473D01*
D54*
X1362989Y12188977D02*
G01*
X1162989Y12188977D01*
X562991Y12188977D01*
X562991Y11918975D01*
X1362989Y11918975D01*
X1362989Y12188977D01*
X1162989Y12188977D02*
G01*
X1162989Y12338964D01*
X1032992Y12338964D01*
X1032992Y12198985D01*
X2517597Y9877399D02*
G01*
X2537612Y9877399D01*
X2537612Y9747402D01*
X2517597Y9747402D01*
X2517597Y9877399D01*
X2257602Y9877399D01*
X2257602Y9747402D01*
X2257602Y9607397D02*
G01*
X2257602Y9477400D01*
X2517597Y9477400D01*
X2517597Y9607397D01*
X2537612Y9607397D01*
X2537612Y9477400D01*
X2517597Y9477400D01*
X2527604Y9747402D02*
G01*
X2527604Y9877399D01*
X2527604Y9477400D02*
G01*
X2527604Y9607397D01*
X3603980Y10298988D02*
G01*
X3703980Y10298988D01*
D56*
X3655491Y10599470D02*
G01*
X3637991Y10616971D01*
X3653002Y10631982D01*
X3670503Y10614482D01*
X3655491Y10599470D01*
D54*
X2294585Y10183698D02*
G01*
X2294585Y10288701D01*
X2480589Y10183698D02*
G01*
X2480589Y10288701D01*
X2672791Y10236200D02*
G01*
X2762783Y10236200D01*
X2610383Y9931400D02*
G01*
X2520391Y9931400D01*
D53*
X2509824Y10054259D02*
G01*
X2509824Y10265714D01*
X2620949Y10265714D01*
X2620975Y10054259D01*
X2509824Y10054259D01*
D54*
X1513001Y10993983D02*
G01*
X1613001Y10993983D01*
X1613001Y10688980D02*
G01*
X1513001Y10688980D01*
X3073400Y9930587D02*
G01*
X3073400Y9830587D01*
X2246985Y12110974D02*
G01*
X2246985Y12210973D01*
D56*
X1903501Y12161469D02*
G01*
X1921002Y12178969D01*
X1935988Y12163983D01*
X1918487Y12146483D01*
X1903501Y12161469D01*
D57*
X1353799Y10829899D02*
G01*
X1033800Y10829899D01*
X1353799Y11064892D02*
G01*
X1033800Y11064900D01*
D58*
X1509839Y11915919D02*
G01*
X1509839Y11774919D01*
X1690560Y11774919D02*
G01*
X1690560Y11915919D01*
X1675320Y11931159D02*
G01*
X1525079Y11931159D01*
X1509839Y11553680D02*
G01*
X1509839Y11694680D01*
X1690560Y11694680D02*
G01*
X1690560Y11553680D01*
X1675320Y11538440D02*
G01*
X1525079Y11538440D01*
X1666260Y11396421D02*
G01*
X1666260Y11492308D01*
X1534139Y11492308D01*
X1534139Y11396421D01*
X1666260Y11311178D02*
G01*
X1666260Y11215291D01*
X1534139Y11215291D01*
X1534139Y11311178D01*
D10*
X5635332Y11817400D02*
G01*
X5555330Y11817400D01*
X5524350Y11928381D02*
G01*
X5524350Y11848381D01*
X5635332Y11959363D02*
G01*
X5555330Y11959363D01*
X5692922Y11816816D02*
G01*
X5772917Y11816816D01*
X5692922Y11958779D02*
G01*
X5772917Y11958779D01*
X5803900Y11927799D02*
G01*
X5803900Y11847796D01*
D59*
X2387600Y11800113D02*
G01*
X2227580Y11800486D01*
X2387600Y11674983D02*
G01*
X2387600Y11989943D01*
X2227580Y11672443D02*
G01*
X2227580Y11992483D01*
X1081313Y10058400D02*
G01*
X1081686Y10218420D01*
X956183Y10058400D02*
G01*
X1271143Y10058400D01*
X953643Y10218420D02*
G01*
X1273683Y10218420D01*
X1473200Y9637486D02*
G01*
X1633220Y9637113D01*
X1473200Y9762617D02*
G01*
X1473200Y9447657D01*
X1633220Y9765157D02*
G01*
X1633220Y9445117D01*
D60*
G75*
G01*
X2337587Y10103206D02*
G03*
X2338045Y10103206I229J-10005D01*
D61*
G75*
G01*
X1388801Y10822402D02*
G03*
X1388801Y10822402I0J0D01*
D58*
G75*
G01*
X1690561Y11915920D02*
G03*
X1675320Y11931160I-15241J0D01*
G75*
G01*
X1525080Y11931160D02*
G03*
X1509840Y11915920I0J-15240D01*
G75*
G01*
X1690561Y11553680D02*
G02*
X1675320Y11538440I-15241J0D01*
G75*
G01*
X1525080Y11538440D02*
G02*
X1509840Y11553680I0J15240D01*
D10*
G75*
G01*
X5524348Y11928381D02*
G02*
X5555331Y11959364I30983J0D01*
G75*
G01*
X5555331Y11817398D02*
G02*
X5524348Y11848381I0J30983D01*
G75*
G01*
X5772917Y11958782D02*
G02*
X5803900Y11927799I0J-30983D01*
G75*
G01*
X5803900Y11847800D02*
G02*
X5772917Y11816817I-30983J0D01*
M02*
