G04 Layer: BottomPasteMaskLayer*
G04 EasyEDA v6.4.29, 2022-01-20 17:46:20*
G04 fb4b0ff46d504c98a6534b0bae3310fd,dc92750a051249c6af70c8c7d89aaf1b,10*
G04 Gerber Generator version 0.2*
G04 Scale: 100 percent, Rotated: No, Reflected: No *
G04 Dimensions in millimeters *
G04 leading zeros omitted , absolute positions ,4 integer and 5 decimal *
%FSLAX45Y45*%
%MOMM*%

%ADD50R,1.1999X3.0000*%

%LPD*%
D50*
G01*
X4507001Y11545976D03*
G01*
X4707001Y11545976D03*
G01*
X4907000Y11545976D03*
G01*
X5107000Y11545976D03*
G01*
X5306999Y11545976D03*
G01*
X5506999Y11545976D03*
G01*
X5706999Y11545976D03*
G01*
X5906998Y11545976D03*
G01*
X5906998Y10045979D03*
G01*
X5706999Y10045979D03*
G01*
X5506999Y10045979D03*
G01*
X5306999Y10045979D03*
G01*
X5107000Y10045979D03*
G01*
X4907000Y10045979D03*
G01*
X4707001Y10045979D03*
G01*
X4507001Y10045979D03*
G36*
X5037599Y9773201D02*
G01*
X4957599Y9773201D01*
X4957599Y9683198D01*
X5037599Y9683198D01*
G37*
G36*
X4897600Y9773201D02*
G01*
X4817600Y9773201D01*
X4817600Y9683198D01*
X4897600Y9683198D01*
G37*
G36*
X6021981Y9414987D02*
G01*
X6021981Y9634976D01*
X5936993Y9634976D01*
X5936993Y9414987D01*
G37*
G36*
X5746988Y9415005D02*
G01*
X5746988Y9634994D01*
X5662000Y9634994D01*
X5662000Y9415005D01*
G37*
G36*
X5891979Y9624999D02*
G01*
X5891979Y9730005D01*
X5791982Y9730005D01*
X5791982Y9624999D01*
G37*
G36*
X5891979Y9319994D02*
G01*
X5891979Y9425000D01*
X5791982Y9425000D01*
X5791982Y9319994D01*
G37*
M02*
